<svg xmlns="http://www.w3.org/2000/svg" viewBox="0 0 3104.48 2183.67"><defs><style>.cls-1{fill:#fff;}.cls-2,.cls-3{fill:#00c3ff;}.cls-2{opacity:0.3;}</style></defs><title>Artboard 3</title><g id="BG"><rect class="cls-1" x="-2900.52" y="-552" width="8868.99" height="5000"/></g><g id="icon"><path class="cls-2" d="M1737.32,883.26l298.32,65.82-14.25,138.58-34.69,63.52-75,39.26h-71.17c-2.75,0-63.24-34.64-63.24-34.64l-31.89-63.52-8-70.44Z"/><path class="cls-3" d="M2958.72,2075.26h-2773c-20.47,0-36.15-9.21-37.54-21.7l-19.62-35.13a6.25,6.25,0,0,1-.79-3c0-13.42,16.17-23.52,37.63-23.52H2976.47c21.45,0,37.64,10.1,37.64,23.52a6.27,6.27,0,0,1-.64,2.75l-17.19,35.22C2995.05,2065.94,2979.31,2075.26,2958.72,2075.26ZM140.51,2014.14l19.3,34.55a6.18,6.18,0,0,1,.8,3c0,4.48,9.78,11,25.1,11h2773c15.32,0,25.1-6.49,25.1-11a6.14,6.14,0,0,1,.65-2.75l16.92-34.7c-1.38-4.37-10.79-9.89-24.92-9.89H165.39C151.43,2004.4,142.06,2009.8,140.51,2014.14Z"/><path class="cls-3" d="M2972.21,2038.89H169.67c-24,0-43.57-18.29-43.57-40.76a6.25,6.25,0,0,1,.7-2.88l272.21-526a6.85,6.85,0,0,1,.62-1,181.75,181.75,0,0,0,10.79-15.8c7.4-11.81,13.25-21.13,31.47-21.13H2651c18.82,0,23.05,6.84,31.47,20.46,2.75,4.45,6.18,10,10.94,16.67.08.13.17.25.24.37l321.25,526a6.31,6.31,0,0,1,.92,3.27C3015.77,2020.6,2996.23,2038.89,2972.21,2038.89ZM138.67,1999.58c.83,14.89,14.42,26.78,31,26.78H2972.21c16.49,0,30-11.77,31-26.56L2683,1475.53c-4.91-6.93-8.43-12.59-11.25-17.16-8-12.86-9-14.51-20.82-14.51H441.89c-11.29,0-13.7,3.84-20.85,15.24a196.14,196.14,0,0,1-11.16,16.37Z"/><path class="cls-3" d="M2688.6,1443.86H453.29a6.27,6.27,0,0,1-6.27-6.28V197.81C447,136.17,494.5,86,552.85,86H2589c58.37,0,105.84,50.14,105.84,111.78V1437.58A6.27,6.27,0,0,1,2688.6,1443.86Zm-2229-12.54H2682.34V197.81c0-54.72-41.88-99.25-93.33-99.25H552.85c-51.45,0-93.3,44.53-93.3,99.25Z"/><path class="cls-3" d="M2586.73,1334H555.14a6.26,6.26,0,0,1-6.26-6.26V186.24a6.27,6.27,0,0,1,6.26-6.27H2586.73a6.28,6.28,0,0,1,6.27,6.27V1327.77A6.27,6.27,0,0,1,2586.73,1334ZM561.41,1321.5H2580.46V192.5h-2019Z"/><path class="cls-3" d="M1570.93,178.15a36.85,36.85,0,1,1,36.86-36.86A36.89,36.89,0,0,1,1570.93,178.15Zm0-65.35a28.5,28.5,0,1,0,28.52,28.49A28.53,28.53,0,0,0,1570.93,112.8Z"/><path class="cls-3" d="M1570.93,163.71a22.41,22.41,0,1,1,22.41-22.42A22.43,22.43,0,0,1,1570.93,163.71Zm0-36.46a14.05,14.05,0,1,0,14.06,14A14.07,14.07,0,0,0,1570.93,127.25Z"/><path class="cls-3" d="M1570.92,149.83a8.53,8.53,0,1,1,8.54-8.54A8.54,8.54,0,0,1,1570.92,149.83Z"/><path class="cls-3" d="M1570.94,147.74a6.44,6.44,0,1,1,6.44-6.45A6.44,6.44,0,0,1,1570.94,147.74Zm0-8.7a2.26,2.26,0,1,0,2.26,2.25A2.26,2.26,0,0,0,1570.94,139Z"/><path class="cls-3" d="M1900.4,1971.27H1241.47c-33.25,0-66.9-10.4-66.9-30.27a6.3,6.3,0,0,1,.54-2.57l66.22-147.17c1.63-18.91,34.43-28.79,66.84-28.79h539.68c32.58,0,65.55,10,66.86,29.08l52.23,147.36a6.17,6.17,0,0,1,.36,2.09C1967.3,1960.87,1933.64,1971.27,1900.4,1971.27ZM1187.23,1942c1.88,7.16,22.61,16.7,54.24,16.7H1900.4c31.94,0,52.76-9.73,54.27-16.92l-52.1-147a6.46,6.46,0,0,1-.35-2.09c0-7.06-21.69-17.73-54.37-17.73H1308.17c-32.69,0-54.38,10.67-54.38,17.73a6.15,6.15,0,0,1-.55,2.57Z"/><path class="cls-3" d="M1900.4,1971.27H1241.47c-33.25,0-66.9-10.4-66.9-30.27a6.3,6.3,0,0,1,.54-2.57l17.7-39.33a6.28,6.28,0,0,1,5.72-3.7h748.55a6.26,6.26,0,0,1,5.92,4.18l13.94,39.33a6.17,6.17,0,0,1,.36,2.09C1967.3,1960.87,1933.64,1971.27,1900.4,1971.27ZM1187.23,1942c1.88,7.16,22.61,16.7,54.24,16.7H1900.4c31.94,0,52.76-9.73,54.27-16.92l-12-33.89H1202.58Z"/><path class="cls-3" d="M501.07,1498.62c-12.19,0-14.2-3.38-14.95-4.65a5.92,5.92,0,0,1-.11-5.9l5.8-10.68c2.65-4.88,12.68-5.66,18.42-5.68l98.63-.43c12.22,0,14.23,3.37,15,4.64a6,6,0,0,1,.12,5.91l-5.81,10.7c-2.64,4.86-12.68,5.63-18.43,5.66Zm-3.18-10.55c.91.06,2,.1,3.18.1h.23l98.39-.42a35.16,35.16,0,0,0,9.85-1.23l2.53-4.68c-.9-.06-2-.11-3.21-.11l-98.58.42a35.28,35.28,0,0,0-9.85,1.22Z"/><path class="cls-3" d="M652.82,1498c-12.22,0-14.23-3.38-15-4.66a5.88,5.88,0,0,1-.11-5.89l5.79-10.69c2.66-4.89,12.7-5.65,18.43-5.68l98.64-.42c12.22,0,14.23,3.37,15,4.64a5.92,5.92,0,0,1,.12,5.9l-5.8,10.68c-2.65,4.89-12.68,5.66-18.43,5.69Zm-3.21-10.57c.91.08,2,.11,3.21.11h.2l98.38-.42a34.34,34.34,0,0,0,9.85-1.23l2.53-4.67c-.9-.08-2-.12-3.2-.12l-98.58.42a34.69,34.69,0,0,0-9.86,1.24Z"/><path class="cls-3" d="M804.55,1497.3c-12.23,0-14.24-3.36-15-4.63a5.94,5.94,0,0,1-.12-5.91l5.8-10.69c2.65-4.88,12.68-5.65,18.43-5.68l98.61-.41c12.25,0,14.25,3.36,15,4.64a5.92,5.92,0,0,1,.1,5.9l-5.78,10.69c-2.65,4.88-12.69,5.65-18.44,5.67Zm-3.23-10.55c.91.07,2,.11,3.23.11h.18l98.38-.41a35,35,0,0,0,9.85-1.24l2.54-4.68c-.92-.07-2-.11-3.23-.11l-98.56.42a34.66,34.66,0,0,0-9.85,1.23Z"/><path class="cls-3" d="M956.26,1496.65c-12.24,0-14.24-3.37-15-4.64a5.94,5.94,0,0,1-.11-5.91l5.8-10.68c2.63-4.89,12.67-5.66,18.42-5.68l98.63-.42c12.23,0,14.23,3.38,15,4.65a5.9,5.9,0,0,1,.11,5.9l-5.79,10.69c-2.66,4.86-12.69,5.64-18.43,5.67l-98.39.42ZM953,1486.09c.91.07,2,.12,3.22.12v5.22l.19-5.22,98.38-.42a35.56,35.56,0,0,0,9.85-1.23l2.53-4.69c-.91-.07-2-.11-3.21-.11l-98.59.42a35.38,35.38,0,0,0-9.83,1.23Z"/><path class="cls-3" d="M1109.24,1496c-13.65,0-15.55-3.36-16.35-4.8a5.8,5.8,0,0,1,.12-6l6.53-10.7c2.71-4.44,12.39-5.41,20.06-5.44l111.13-.48c13.65,0,15.54,3.36,16.35,4.82a5.8,5.8,0,0,1-.13,5.95l-6.53,10.7c-2.72,4.45-12.4,5.41-20.05,5.43Zm-4.1-10.58c1.14.09,2.5.15,4.1.15h.28l110.8-.49a42.9,42.9,0,0,0,11.76-1.36l2.74-4.5c-1.13-.1-2.5-.16-4.09-.16h-.29l-110.8.48a43.5,43.5,0,0,0-11.75,1.37Z"/><path class="cls-3" d="M2527.81,1492.58c-6.91,0-15.71-.95-18.23-5.51l-5.89-10.65a5.9,5.9,0,0,1,.07-5.9c.75-1.29,2.75-4.72,15.18-4.78l98.66-.43c6.92,0,15.68,1,18.22,5.52l5.88,10.65a5.93,5.93,0,0,1-.08,5.92c-.76,1.28-2.76,4.7-15.16,4.76Zm-9.65-11.59a34.51,34.51,0,0,0,9.65,1.14h.21l98.39-.42c1.3,0,2.44-.06,3.4-.15l-2.58-4.65a34.34,34.34,0,0,0-9.63-1.14h-.22l-98.39.42c-1.32,0-2.45.06-3.41.14Z"/><path class="cls-3" d="M2376.11,1493.23c-6.93,0-15.7-1-18.24-5.52l-5.88-10.63a5.91,5.91,0,0,1,.06-5.91c.75-1.3,2.76-4.72,15.18-4.77l98.65-.42c6.9,0,15.68,1,18.21,5.5l5.89,10.65a5.91,5.91,0,0,1-.06,5.91c-.77,1.29-2.76,4.71-15.19,4.76Zm-9.66-11.58a35,35,0,0,0,9.66,1.14h.2l98.39-.42c1.3,0,2.44-.07,3.4-.15l-2.57-4.65a34.46,34.46,0,0,0-9.65-1.15h-.21l-98.39.42c-1.32,0-2.45.06-3.4.15Z"/><path class="cls-3" d="M2224.39,1493.89c-6.91,0-15.69-1-18.22-5.51l-5.9-10.65a5.93,5.93,0,0,1,.06-5.92c.76-1.28,2.77-4.7,15.19-4.75l98.65-.42c6.92,0,15.69.95,18.2,5.5l5.91,10.64a6,6,0,0,1-.08,5.93c-.76,1.28-2.76,4.69-15.18,4.76Zm-9.66-11.59a34.49,34.49,0,0,0,9.66,1.15h.2L2323,1483c1.31,0,2.45-.06,3.4-.13l-2.57-4.66a34.43,34.43,0,0,0-9.64-1.14H2314l-98.38.43c-1.32,0-2.47.06-3.41.13Z"/><path class="cls-3" d="M2058.84,1494.6c-7.53,0-17.08-.92-19.8-5.28l-6.63-10.63a5.79,5.79,0,0,1-.16-6c.8-1.46,2.68-4.88,16.63-5l111.1-.48c7.54,0,17.09.93,19.8,5.29l6.63,10.63a5.81,5.81,0,0,1,.16,6c-.8,1.46-2.69,4.88-16.62,4.93Zm-11.5-11.72a42.65,42.65,0,0,0,11.5,1.28h.25l110.81-.48c1.72,0,3.18-.08,4.38-.19l-2.78-4.47a42.84,42.84,0,0,0-11.52-1.28h-.26l-110.78.48c-1.74,0-3.18.07-4.38.19Z"/><path class="cls-3" d="M477.61,1542.16c-6.67,0-11.55-1.93-13.7-5.45a7.55,7.55,0,0,1-.25-7.5l10.18-20.07c2.89-5.67,12.16-8.3,19.56-8.33l97.37-.42c6.81,0,11.68,1.93,13.83,5.45a7.5,7.5,0,0,1,.26,7.5l-10.19,20.06c-2.88,5.69-12.15,8.31-19.55,8.35l-97.36.41Zm-3.35-10.74a16.8,16.8,0,0,0,3.35.29v5.22l.1-5.22,97.37-.42c5.21,0,9.43-1.77,10.35-2.75l8.84-17.41a16.4,16.4,0,0,0-3.38-.29l-97.45.41c-5.21,0-9.43,1.77-10.35,2.75Z"/><path class="cls-3" d="M629.31,1541.5c-6.68,0-11.55-1.93-13.71-5.44a7.56,7.56,0,0,1-.24-7.51l10.18-20.07c2.87-5.68,12.15-8.29,19.56-8.33l97.35-.42c6.83,0,11.69,1.94,13.85,5.46a7.52,7.52,0,0,1,.26,7.5l-10.19,20.06c-2.88,5.68-12.15,8.3-19.55,8.33l-97.36.42ZM626,1530.76a17.53,17.53,0,0,0,3.36.31v5.21l.1-5.21,97.36-.44c5.21,0,9.44-1.76,10.36-2.74l8.83-17.41a16.08,16.08,0,0,0-3.36-.3l-97.46.42c-5.21,0-9.44,1.77-10.35,2.75Z"/><path class="cls-3" d="M687.51,1585.22c-6.69,0-11.56-1.93-13.72-5.45a7.56,7.56,0,0,1-.25-7.51l10.19-20.06c2.88-5.66,12.16-8.29,19.54-8.32l97.37-.42c6.83,0,11.69,1.94,13.85,5.45a7.52,7.52,0,0,1,.25,7.5l-10.18,20.06c-2.89,5.68-12.16,8.3-19.56,8.34l-97.36.41Zm-3.38-10.74a16.18,16.18,0,0,0,3.38.31V1580l.09-5.22,97.36-.43c5.2,0,9.43-1.77,10.35-2.75l8.84-17.41a17.66,17.66,0,0,0-3.36-.3l-97.47.42c-5.21,0-9.43,1.78-10.35,2.75Z"/><path class="cls-3" d="M606.47,1685.67c-6.55,0-11.7-2.11-14.13-5.79a8.78,8.78,0,0,1-.72-8.39l11-25.78c2.84-6.65,12.64-10.16,20.86-10.2l104.9-.46c6.68,0,11.83,2.12,14.26,5.8a8.74,8.74,0,0,1,.72,8.37l-11,25.79c-2.82,6.64-12.63,10.17-20.85,10.2l-104.9.46Zm-4.75-11.21a12.7,12.7,0,0,0,4.75.76v5.22l.08-5.22,104.91-.45c6.2,0,10.72-2.72,11.29-3.86l10.46-24.63a12.35,12.35,0,0,0-4.75-.78l-105,.46c-6.2,0-10.73,2.72-11.3,3.85Z"/><path class="cls-3" d="M533.09,1744c-7.12,0-12.7-2.25-15.3-6.2A9.19,9.19,0,0,1,517,1729l12.28-28.88c3.06-7.21,13.77-11,22.77-11.05l117.49-.5c7.27,0,12.85,2.26,15.45,6.19a9.2,9.2,0,0,1,.75,8.81l-12.27,28.87c-3,7.2-13.77,11-22.78,11l-117.48.5ZM527,1732.37a12.84,12.84,0,0,0,6.13,1.19v5.22l.1-5.22,117.49-.51c7.42,0,12.62-3.29,13.21-4.68l12-28.15a12.65,12.65,0,0,0-6.13-1.2l-117.58.51c-7.43,0-12.64,3.29-13.22,4.68Z"/><path class="cls-3" d="M698.76,1743.28c-7.11,0-12.69-2.25-15.3-6.2a9.15,9.15,0,0,1-.74-8.8L695,1699.4c3-7.19,13.77-11,22.77-11l117.49-.5c7.27,0,12.84,2.25,15.45,6.19a9.17,9.17,0,0,1,.74,8.81l-12.26,28.86c-3.06,7.2-13.77,11-22.78,11l-117.49.51Zm-6.13-11.63a12.75,12.75,0,0,0,6.13,1.19v5.22l.1-5.22,117.5-.5c7.41,0,12.62-3.31,13.21-4.7l11.95-28.14a12.68,12.68,0,0,0-6.13-1.2l-117.59.52c-7.42,0-12.62,3.29-13.21,4.67Z"/><path class="cls-3" d="M873.68,1742.53c-8.92,0-15.54-2.49-18.17-6.83a8.51,8.51,0,0,1-.2-8.54l15.06-28.88c3.63-7,16.15-10.64,26.67-10.68l144-.63c9.12,0,15.74,2.5,18.38,6.84a8.5,8.5,0,0,1,.19,8.52l-15.06,28.89c-3.62,7-16.16,10.65-26.66,10.68l-144,.63Zm-8.43-11.82a20.91,20.91,0,0,0,8.43,1.38v5.21l.17-5.21,143.94-.63c9.66,0,16.62-3.57,17.46-5.08l14.37-27.58c-1.28-.59-3.94-1.39-8.44-1.39l-144.1.63c-9.64,0-16.6,3.58-17.45,5.07Z"/><path class="cls-3" d="M710,1633.06c-6.67,0-11.53-1.93-13.69-5.46a7.52,7.52,0,0,1-.26-7.5L706.22,1600c2.88-5.67,12.16-8.3,19.55-8.33l97.37-.42c6.82,0,11.68,1.94,13.84,5.45a7.52,7.52,0,0,1,.25,7.5l-10.18,20.08c-2.89,5.67-12.17,8.29-19.56,8.33l-97.36.42Zm-3.36-10.75a17,17,0,0,0,3.36.3v5.22l.1-5.22,97.36-.42c5.22,0,9.45-1.78,10.36-2.76l8.84-17.41a17.67,17.67,0,0,0-3.35-.29l-97.48.41c-5.2,0-9.43,1.79-10.35,2.76Z"/><path class="cls-3" d="M781,1540.85c-6.67,0-11.53-1.93-13.69-5.45a7.5,7.5,0,0,1-.25-7.5l10.18-20.08c2.87-5.67,12.15-8.29,19.55-8.32l97.37-.43c6.82,0,11.68,2,13.84,5.46a7.51,7.51,0,0,1,.25,7.51l-10.18,20.06c-2.88,5.68-12.16,8.3-19.56,8.33l-97.36.42Zm-3.35-10.75a15.86,15.86,0,0,0,3.35.31v5.22l.1-5.22,97.37-.43c5.21,0,9.44-1.76,10.35-2.74l8.84-17.42a16.91,16.91,0,0,0-3.36-.29l-97.46.42c-5.21,0-9.44,1.77-10.36,2.75Z"/><path class="cls-3" d="M847.5,1584.53c-6.69,0-11.55-1.94-13.71-5.44a7.54,7.54,0,0,1-.24-7.51l10.18-20.07c2.88-5.67,12.16-8.3,19.56-8.33l97.36-.41c6.83,0,11.68,1.93,13.84,5.44a7.53,7.53,0,0,1,.25,7.52l-10.18,20.06c-2.88,5.67-12.16,8.29-19.55,8.33l-97.37.41Zm-3.36-10.73a17.79,17.79,0,0,0,3.36.29v5.22l.1-5.22,97.36-.42c5.21,0,9.44-1.77,10.36-2.76l8.83-17.4a16.76,16.76,0,0,0-3.35-.3l-97.47.41c-5.2,0-9.44,1.79-10.36,2.77Z"/><path class="cls-3" d="M866.82,1632.38c-6.69,0-11.55-1.94-13.72-5.46a7.5,7.5,0,0,1-.26-7.49L863,1599.36c2.9-5.68,12.17-8.3,19.56-8.33l97.37-.43c6.82,0,11.69,1.94,13.84,5.45a7.54,7.54,0,0,1,.25,7.51l-10.18,20.06c-2.87,5.67-12.15,8.3-19.55,8.35l-97.37.41Zm-3.38-10.75a17,17,0,0,0,3.38.3v5.22l.08-5.22,97.36-.42c5.21,0,9.44-1.77,10.36-2.74l8.83-17.42a16.91,16.91,0,0,0-3.34-.29l-97.48.41c-5.21,0-9.44,1.78-10.36,2.76Z"/><path class="cls-3" d="M1029.93,1631.67c-6.69,0-11.56-1.93-13.72-5.44a7.57,7.57,0,0,1-.26-7.5l10.19-20.07c2.89-5.68,12.16-8.3,19.56-8.33l97.37-.43c6.81,0,11.68,1.93,13.84,5.45a7.55,7.55,0,0,1,.25,7.5L1147,1622.92c-2.88,5.68-12.15,8.3-19.55,8.33l-97.36.42Zm-3.38-10.74a16.29,16.29,0,0,0,3.38.3v5.22l.08-5.22,97.37-.42c5.21,0,9.44-1.78,10.35-2.75l8.84-17.42a17.66,17.66,0,0,0-3.36-.3l-97.46.43c-5.22,0-9.45,1.77-10.37,2.75Z"/><path class="cls-3" d="M765.27,1682.14c-4.16,0-11.57-.74-14.65-5.75a7.79,7.79,0,0,1-.26-7.75l11.23-22.09c3.08-6.06,13.07-8.85,21.07-8.88l107.23-.47c4.31,0,11.72.74,14.79,5.75a7.84,7.84,0,0,1,.26,7.75l-11.22,22.09c-3.07,6.06-13.07,8.86-21.06,8.9l-107.24.45Zm-4.49-10.94a17.24,17.24,0,0,0,4.49.51v5.22l.11-5.22,107.23-.47c6.17,0,11-2.16,11.87-3.29l10-19.81a18.23,18.23,0,0,0-4.48-.5l-107.35.47c-6.16,0-11,2.15-11.86,3.28Z"/><path class="cls-3" d="M927.55,1681.45c-4.14,0-11.55-.75-14.63-5.76a7.8,7.8,0,0,1-.25-7.74l11.21-22.1C927,1639.79,937,1637,945,1637l107.24-.48c4.31,0,11.72.76,14.79,5.76a7.82,7.82,0,0,1,.26,7.75L1056,1672.1C1053,1678.16,1043,1681,1035,1681l-107.23.46Zm-4.47-11a16.78,16.78,0,0,0,4.48.51v5.22l.12-5.22,107.24-.46c6.18,0,11-2.15,11.87-3.3l10-19.8a17.75,17.75,0,0,0-4.48-.5l-107.34.47c-6.08,0-11,2.18-11.87,3.28Z"/><path class="cls-3" d="M1090.69,1680.75c-4.16,0-11.59-.75-14.65-5.76a7.81,7.81,0,0,1-.26-7.76l11.22-22.09c3.07-6.05,13.08-8.84,21.06-8.88l107.25-.46c4.3,0,11.72.75,14.78,5.75a7.78,7.78,0,0,1,.27,7.74l-11.23,22.11c-3.07,6-13.07,8.84-21.06,8.88l-107.23.47Zm-4.49-11a17.84,17.84,0,0,0,4.49.5v5.23l.1-5.23,107.23-.47c6.17,0,11-2.15,11.88-3.29l10-19.81a18.4,18.4,0,0,0-4.48-.49l-107.35.45c-6.16,0-11,2.16-11.87,3.3Z"/><path class="cls-3" d="M932.71,1540.2c-6.68,0-11.55-1.94-13.71-5.45a7.56,7.56,0,0,1-.26-7.51l10.2-20.06c2.88-5.69,12.15-8.3,19.55-8.33l97.36-.43c6.82,0,11.69,1.94,13.85,5.45a7.58,7.58,0,0,1,.25,7.52l-10.19,20c-2.88,5.68-12.15,8.3-19.55,8.33l-97.36.43Zm-3.37-10.75a16.86,16.86,0,0,0,3.37.31V1535l.1-5.21,97.36-.43c5.21,0,9.44-1.78,10.36-2.75l8.83-17.42a17.69,17.69,0,0,0-3.37-.3l-97.45.42c-5.21,0-9.44,1.78-10.36,2.76Z"/><path class="cls-3" d="M999.2,1583.88c-6.68,0-11.55-1.94-13.71-5.45a7.56,7.56,0,0,1-.25-7.51l10.19-20.06c2.88-5.68,12.15-8.3,19.55-8.33l97.37-.42c6.82,0,11.68,1.94,13.84,5.45a7.55,7.55,0,0,1,.25,7.5l-10.19,20.07c-2.88,5.68-12.15,8.29-19.54,8.33l-97.37.42Zm-3.36-10.74a17.49,17.49,0,0,0,3.36.3v5.22l.1-5.22,97.37-.42c5.2,0,9.42-1.78,10.35-2.76l8.83-17.4a16.87,16.87,0,0,0-3.36-.3L1015,1553c-5.21,0-9.44,1.77-10.36,2.75Z"/><path class="cls-3" d="M2493.34,1533.46c-8.27,0-23.54-1.5-28.36-7.12l-17.07-19.95a6.8,6.8,0,0,1-1.17-7.37c2-4.41,9-6.68,20.62-6.74l161.29-.68c8.28,0,23.56,1.49,28.36,7.13l17.06,20a6.78,6.78,0,0,1,1.18,7.35c-2,4.42-9,6.69-20.63,6.73Zm-34.25-30.07,13.82,16.15c1.41,1.17,9.56,3.48,20.43,3.48h.3l160.93-.7a51.77,51.77,0,0,0,8.33-.63l-13.84-16.17c-1.4-1.18-9.55-3.48-20.41-3.48h-.32l-160.92.7A48,48,0,0,0,2459.09,1503.39Z"/><path class="cls-3" d="M2325.19,1534.19c-7.35,0-16.58-2.56-19.49-8.16l-10.36-20a7.53,7.53,0,0,1,.21-7.53c2.88-4.79,9.87-5.53,13.77-5.55l97.38-.41c7.48,0,16.72,2.55,19.62,8.16l10.35,20a7.47,7.47,0,0,1-.19,7.51c-2.89,4.8-9.88,5.54-13.78,5.56l-97.38.42Zm-10.29-13.1c.93,1,5.12,2.66,10.29,2.66V1529l.09-5.22,97.36-.42a18.64,18.64,0,0,0,3.45-.33l-9-17.34c-.91-1-5.11-2.67-10.27-2.67l-97.48.43a16.68,16.68,0,0,0-3.46.33Z"/><path class="cls-3" d="M2423.94,1577.73c-7.34,0-16.57-2.55-19.48-8.16l-10.35-20a7.51,7.51,0,0,1,.19-7.51c2.15-3.56,7-5.52,13.79-5.56l97.36-.42c7.5,0,16.72,2.54,19.62,8.15l10.37,20a7.56,7.56,0,0,1-.2,7.52c-2.9,4.81-9.89,5.55-13.8,5.56l-97.35.42Zm-10.28-13.11c.91,1,5.1,2.67,10.28,2.67v5.21l.09-5.21,97.37-.42a16.6,16.6,0,0,0,3.46-.33l-9-17.34c-.92-1-5.11-2.65-10.28-2.65l-97.47.42a17.41,17.41,0,0,0-3.45.32Z"/><path class="cls-3" d="M2484.73,1627.76c-7.83,0-17.65-2.81-20.68-9l-11.16-22.61a8.06,8.06,0,0,1,.31-7.89c2.28-3.67,7.53-5.79,14.44-5.82l104.9-.45c8,0,17.79,2.81,20.83,9l11.14,22.64a8,8,0,0,1-.3,7.86c-2.28,3.68-7.54,5.8-14.45,5.83l-104.89.45Zm-21.53-34.29,10.22,20.69c.73,1,5.47,3.15,11.31,3.15v5.23l.1-5.23,104.91-.45a15.87,15.87,0,0,0,4.46-.56L2584,1595.6c-.73-1-5.45-3.14-11.32-3.14l-105,.47A16.28,16.28,0,0,0,2463.2,1593.47Z"/><path class="cls-3" d="M2173.5,1534.85c-7.36,0-16.6-2.56-19.5-8.17l-10.35-20a7.53,7.53,0,0,1,.19-7.52c2.16-3.55,7-5.54,13.78-5.56l97.37-.42c7.49,0,16.73,2.56,19.64,8.17l10.35,20a7.53,7.53,0,0,1-.21,7.52c-2.89,4.79-9.88,5.53-13.78,5.55l-97.38.43Zm-10.29-13.12c.91,1,5.1,2.66,10.29,2.66v5.23l.09-5.23L2271,1524a17.57,17.57,0,0,0,3.45-.32l-9-17.34c-.92-1-5.13-2.66-10.3-2.66l-97.46.42a17.32,17.32,0,0,0-3.46.33Z"/><path class="cls-3" d="M2021.79,1535.5c-7.34,0-16.57-2.56-19.49-8.16l-10.36-20a7.56,7.56,0,0,1,.2-7.52c2.89-4.79,9.89-5.54,13.8-5.55l97.35-.43c7.5,0,16.74,2.56,19.64,8.18l10.36,20a7.58,7.58,0,0,1-.2,7.53c-2.91,4.8-9.88,5.54-13.81,5.56l-97.36.42Zm-10.28-13.11c.91.95,5.12,2.66,10.28,2.66v5.23l.1-5.23,97.35-.42a16.79,16.79,0,0,0,3.47-.33l-9-17.34c-.92-1-5.11-2.66-10.28-2.66l-97.46.43a17.4,17.4,0,0,0-3.46.33Z"/><path class="cls-3" d="M1244.42,1538.86c-6.53,0-11.74-1.87-14.29-5.13a7.72,7.72,0,0,1-1.49-6.71l5-20c1.6-6.43,10.74-9.4,18.56-9.45l97.36-.4c6.67,0,11.88,1.86,14.43,5.11a7.75,7.75,0,0,1,1.5,6.72l-5,20c-1.61,6.43-10.74,9.41-18.56,9.43l-97.36.43Zm-5.17-11.21a15.16,15.16,0,0,0,5.17.76v5.22l.1-5.22,97.35-.41c4.41,0,7.62-1.29,8.6-2.07l4.39-17.62a15.38,15.38,0,0,0-5.18-.75l-97.46.42c-4.41,0-7.62,1.27-8.61,2Z"/><path class="cls-3" d="M1085.61,1539.53c-6.52,0-11.72-1.86-14.27-5.12a7.69,7.69,0,0,1-1.5-6.71l5-20c1.58-6.42,10.73-9.4,18.55-9.43l97.37-.42c6.66,0,11.86,1.86,14.41,5.12a7.74,7.74,0,0,1,1.51,6.71l-5,20c-1.59,6.43-10.73,9.4-18.55,9.44l-97.36.41Zm-5.16-11.19a15.19,15.19,0,0,0,5.16.75v5.23l.11-5.23,97.36-.42c4.4,0,7.62-1.26,8.61-2l4.37-17.63a15.31,15.31,0,0,0-5.17-.75l-97.46.42c-4.41,0-7.62,1.26-8.61,2Z"/><path class="cls-3" d="M457.71,1588.18c-11.1,0-17.81-2.27-19.94-6.75a7.09,7.09,0,0,1,1.06-7.67l18-22.28c5.07-6.28,21.1-8,28.85-8l160.07-.68c11.08,0,17.79,2.25,19.93,6.73a7.13,7.13,0,0,1-1,7.69l-18,22.28c-5.06,6.27-21.09,8-28.86,8Zm-8.12-11.12a41.24,41.24,0,0,0,8.12.68H458l159.74-.69c10.93,0,19.37-2.76,20.82-4.2l15.3-19a41.51,41.51,0,0,0-8.13-.68h-.28l-159.74.69c-10.94,0-19.37,2.76-20.83,4.22Z"/><path class="cls-3" d="M438.17,1637c-9.44,0-21.38-1.24-24.6-7.11a7,7,0,0,1,.29-7.21L429,1599c4.44-7,22.76-8.9,32.89-8.94l195.83-.84c9.46,0,21.42,1.23,24.65,7.12a7,7,0,0,1-.3,7.21l-15.12,23.7c-4.43,7-22.76,8.88-32.89,8.93Zm-13.51-11.83a54.92,54.92,0,0,0,13.51,1.39h.41l195.41-.84c13-.06,22.4-2.75,24.26-4.3l13-20.37a53.43,53.43,0,0,0-13.56-1.42h-.37l-195.42.86c-12.94.06-22.38,2.74-24.25,4.29Z"/><path class="cls-3" d="M397.72,1687.46c-8.61,0-14.56-2.36-16.73-6.69a8.26,8.26,0,0,1,1-8.86l20.05-27c4.59-6.16,16.92-9.44,26.72-9.48l137-.59c8.82,0,14.76,2.37,16.93,6.7a8.3,8.3,0,0,1-1,8.86l-20,27c-4.59,6.16-16.91,9.44-26.72,9.48l-137,.58Zm-6-11.11a22.63,22.63,0,0,0,6,.67v5.23l.16-5.23,137-.59c8.73,0,16.85-3.19,18.39-5.27L572,1646a23.13,23.13,0,0,0-6-.67l-137.14.6c-8.72,0-16.83,3.19-18.37,5.26Z"/><path class="cls-3" d="M367,1743c-6.5,0-11.58-2.21-13.93-6a9.45,9.45,0,0,1-.2-9.4l14.92-29.24c3.55-7,14.13-10.78,22.27-10.81l108.87-.44c6.61,0,11.69,2.21,14.05,6a9.45,9.45,0,0,1,.2,9.4l-14.92,29.24c-3.54,7-14.13,10.79-22.27,10.82l-108.87.43Zm-4.55-11.25a10.68,10.68,0,0,0,4.55.81v5.21l.08-5.21,108.88-.44c6.26,0,12-3.09,13-5.1l14.64-28.71a10.87,10.87,0,0,0-4.56-.8l-108.94.43c-6.27,0-12,3.09-13,5.11Z"/><path class="cls-3" d="M1277,1498.33a12.8,12.8,0,0,1-12.94-12.51v-2.45a12.33,12.33,0,0,1,3.85-9,13,13,0,0,1,9-3.63l110.15-.47a12.78,12.78,0,0,1,13,12.5v2.45a12.76,12.76,0,0,1-12.87,12.62l-110.15.48Zm110.13-17.61-110.15.47a2.59,2.59,0,0,0-1.85.73,1.93,1.93,0,0,0-.63,1.4v2.45a2.34,2.34,0,0,0,2.49,2.12v5.22l0-5.22,110.13-.48a2.35,2.35,0,0,0,2.49-2.13l0-2.45A2.34,2.34,0,0,0,1387.17,1480.72Z"/><path class="cls-3" d="M1431.32,1497.66a12.78,12.78,0,0,1-12.93-12.51v-2.45a12.32,12.32,0,0,1,3.84-9,13.05,13.05,0,0,1,9-3.62l110.13-.49a12.79,12.79,0,0,1,13,12.51l0,2.45a12.36,12.36,0,0,1-3.63,8.79,13,13,0,0,1-9.26,3.84l-110.13.47Zm110.13-17.6-110.14.47a2.67,2.67,0,0,0-1.86.72,1.94,1.94,0,0,0-.64,1.41l0,2.44a2.33,2.33,0,0,0,2.49,2.12v0l110.13-.48a2.66,2.66,0,0,0,1.9-.75,1.93,1.93,0,0,0,.59-1.37v-2.45A2.33,2.33,0,0,0,1541.45,1480.06Z"/><path class="cls-3" d="M1585.6,1497a12.76,12.76,0,0,1-12.92-12.5V1482a12.74,12.74,0,0,1,12.87-12.6l110.14-.48a12.79,12.79,0,0,1,13,12.49v2.47a12.76,12.76,0,0,1-12.87,12.61l-110.15.47Zm110.15-17.6-110.17.47a2.36,2.36,0,0,0-2.48,2.14l0,2.44a2.32,2.32,0,0,0,2.48,2.12v0l110.14-.48a2.34,2.34,0,0,0,2.49-2.13v-2.46A2.33,2.33,0,0,0,1695.75,1479.39Z"/><path class="cls-3" d="M1739.88,1496.33a12.79,12.79,0,0,1-12.93-12.5l0-2.45a12.44,12.44,0,0,1,3.86-9,13.13,13.13,0,0,1,9-3.61l110.13-.48a12.81,12.81,0,0,1,13,12.51v2.45a12.25,12.25,0,0,1-3.83,9,13.07,13.07,0,0,1-9.05,3.64l-110.13.47ZM1850,1478.71l-110.15.49a2.7,2.7,0,0,0-1.86.72,2,2,0,0,0-.62,1.41v2.45a2.32,2.32,0,0,0,2.48,2.11v5.21l0-5.21,110.15-.48a2.59,2.59,0,0,0,1.83-.72,1.84,1.84,0,0,0,.63-1.41v-2.47A2.34,2.34,0,0,0,1850,1478.71Z"/><path class="cls-3" d="M1894.16,1495.66a12.78,12.78,0,0,1-12.93-12.5v-2.45a12.32,12.32,0,0,1,3.84-9,13.11,13.11,0,0,1,9-3.62l110.13-.48a12.81,12.81,0,0,1,13,12.51v2.45a12.32,12.32,0,0,1-3.84,9,13.08,13.08,0,0,1-9,3.62l-110.14.47Zm110.14-17.61-110.15.48a2.64,2.64,0,0,0-1.84.72,1.92,1.92,0,0,0-.64,1.41l0,2.45a2.31,2.31,0,0,0,2.47,2.11v0l110.15-.47a2.57,2.57,0,0,0,1.85-.73,1.8,1.8,0,0,0,.63-1.4v-2.45A2.33,2.33,0,0,0,2004.3,1478.05Z"/><path class="cls-3" d="M1083.48,1742.68h-.06a12.79,12.79,0,0,1-12.94-12.5l-.13-31.83a12.77,12.77,0,0,1,12.88-12.61l796.38-3.44a12.8,12.8,0,0,1,13,12.51l.13,31.82a12.77,12.77,0,0,1-12.87,12.61Zm796.18-49.94-796.39,3.44a2.31,2.31,0,0,0-2.47,2.13l.13,31.82a2.33,2.33,0,0,0,2.49,2.11v5.22l0-5.22,796.36-3.45a2.32,2.32,0,0,0,2.48-2.12l-.13-31.82A2.32,2.32,0,0,0,1879.66,1692.74Z"/><path class="cls-3" d="M1318.13,1584.22a12.79,12.79,0,0,1-12.94-12.51l-.09-19.58a12.79,12.79,0,0,1,12.88-12.62l105.43-.45a12.79,12.79,0,0,1,13,12.5l.08,19.59a12.76,12.76,0,0,1-12.88,12.61l-105.42.46Zm105.35-34.72L1318,1550a2.32,2.32,0,0,0-2.47,2.13l.08,19.58a2.34,2.34,0,0,0,2.5,2.09v0l105.42-.45a2.3,2.3,0,0,0,2.48-2.11l-.08-19.59A2.33,2.33,0,0,0,1423.48,1549.5Z"/><path class="cls-3" d="M1345.81,1632c-7.6,0-13.81-5.61-13.85-12.51l-.07-19.58a12,12,0,0,1,4.33-9.18,14.59,14.59,0,0,1,9.47-3.44l118.13-.51c7.69,0,13.9,5.61,13.93,12.51l.09,19.58a12.11,12.11,0,0,1-4.34,9.19,14.59,14.59,0,0,1-9.48,3.44l-118.14.5Zm118.09-34.77-118.16.52a4.11,4.11,0,0,0-2.73.92,1.71,1.71,0,0,0-.68,1.2l.07,19.58c0,1,1.47,2.11,3.41,2.11v5.22l0-5.22,118.14-.51a4.36,4.36,0,0,0,2.73-.92,1.8,1.8,0,0,0,.68-1.21l-.09-19.58C1467.3,1598.36,1465.84,1597.25,1463.9,1597.25Z"/><path class="cls-3" d="M1470.69,1583.56a12.79,12.79,0,0,1-12.94-12.51l-.07-19.58a12.21,12.21,0,0,1,3.84-9,13,13,0,0,1,9-3.62l105.43-.45a12.78,12.78,0,0,1,13,12.5l.09,19.58a12.25,12.25,0,0,1-3.85,9,13,13,0,0,1-9,3.63l-105.44.46ZM1576,1548.84l-105.44.45a2.65,2.65,0,0,0-1.85.73,2,2,0,0,0-.64,1.4l.1,19.6a2.32,2.32,0,0,0,2.48,2.09v5.22l0-5.22,105.41-.46a2.68,2.68,0,0,0,1.86-.7,2,2,0,0,0,.63-1.41l-.08-19.58A2.34,2.34,0,0,0,1576,1548.84Z"/><path class="cls-3" d="M1508.19,1631.32c-7.35,0-13.33-5.6-13.37-12.51l-.08-19.57c0-6.93,6-12.59,13.32-12.62l111.4-.49c7.42,0,13.42,5.62,13.44,12.5l.08,19.59c0,6.93-6,12.59-13.32,12.62l-111.42.48Zm111.34-34.75-111.42.49c-1.57,0-2.94,1-2.93,2.14l.08,19.57c0,1.14,1.35,2.1,2.93,2.1v0l111.41-.47c1.55,0,2.93-1,2.93-2.14l-.09-19.57C1622.45,1597.56,1621.08,1596.57,1619.53,1596.57Z"/><path class="cls-3" d="M1628.4,1582.88a12.8,12.8,0,0,1-12.94-12.5l-.08-19.59a12.37,12.37,0,0,1,3.85-9,13.18,13.18,0,0,1,9-3.62l105.42-.46a12.8,12.8,0,0,1,13,12.51l.09,19.59a12.78,12.78,0,0,1-12.89,12.62l-105.43.45Zm105.36-34.71-105.44.45a2.67,2.67,0,0,0-1.86.72,1.94,1.94,0,0,0-.64,1.41l.09,19.58a2.33,2.33,0,0,0,2.49,2.1v0l105.44-.45a2.35,2.35,0,0,0,2.49-2.13l-.1-19.58A2.31,2.31,0,0,0,1733.76,1548.17Z"/><path class="cls-3" d="M1672.31,1630.61a12.77,12.77,0,0,1-12.92-12.5l-.08-19.59a12.77,12.77,0,0,1,12.88-12.62l105.43-.45a12.8,12.8,0,0,1,13,12.51l.08,19.58a12.34,12.34,0,0,1-3.84,9,13.08,13.08,0,0,1-9,3.63l-105.43.45Zm105.37-34.72-105.44.46a2.34,2.34,0,0,0-2.49,2.13l.09,19.58a2.32,2.32,0,0,0,2.47,2.11v5.21l0-5.21,105.42-.45a2.7,2.7,0,0,0,1.85-.72,1.94,1.94,0,0,0,.64-1.41l-.09-19.58A2.33,2.33,0,0,0,1777.68,1595.89Z"/><path class="cls-3" d="M1818.59,1630c-7.76,0-14.13-5.61-14.15-12.51l-.09-19.57a12.09,12.09,0,0,1,4.48-9.26,15.28,15.28,0,0,1,9.63-3.37l122.28-.52c7.84,0,14.2,5.61,14.22,12.5l.09,19.58c0,6.93-6.3,12.59-14.12,12.62l-122.27.53Zm122.22-34.79-122.29.53a4.75,4.75,0,0,0-3,1,1.68,1.68,0,0,0-.71,1.15l.1,19.58c0,.85,1.48,2.12,3.7,2.12v5.21l0-5.21,122.26-.54c2.25,0,3.73-1.29,3.73-2.14l-.1-19.58C1944.51,1596.45,1943,1595.19,1940.81,1595.19Z"/><path class="cls-3" d="M1990.8,1629.25c-6.81,0-13.5-4.69-15.5-10.91l-6.36-19.57a10.66,10.66,0,0,1,1.34-9.69,11.42,11.42,0,0,1,9.45-4.5l112.25-.49c6.9,0,13.57,4.69,15.58,10.91l6.33,19.55a10.75,10.75,0,0,1-1.31,9.7,11.5,11.5,0,0,1-9.46,4.5l-112.25.5Zm-12-34a1.55,1.55,0,0,1,.12.34l6.34,19.56a6.45,6.45,0,0,0,5.58,3.68V1624l0-5.23,112.24-.48a2.09,2.09,0,0,0,1-.19s-.07-.15-.13-.35l-6.34-19.54c-.54-1.71-3.1-3.69-5.57-3.69l-112.27.48A2.29,2.29,0,0,0,1978.76,1595.21Z"/><path class="cls-3" d="M2160.85,1628.5c-6.69,0-13.67-4.48-16.22-10.45l-8.42-19.54a10.48,10.48,0,0,1,.58-10,11,11,0,0,1,9.4-4.65l113.92-.49c6.76,0,13.75,4.49,16.31,10.44l8.39,19.56a10.43,10.43,0,0,1-.56,10,11,11,0,0,1-9.41,4.64l-113.91.49Zm-15-34.16s0,0,0,.05l8.4,19.54c.91,2.13,4.13,4.13,6.62,4.13v5.22l0-5.22,113.93-.48a2.65,2.65,0,0,0,.44,0,.06.06,0,0,0,0,0l-8.39-19.55c-.91-2.13-4.16-4.14-6.66-4.14l-113.93.51A2.76,2.76,0,0,0,2145.8,1594.34Z"/><path class="cls-3" d="M2319.08,1627.82c-6.34,0-13.56-4.26-16.81-9.91l-11.22-19.53c-2.09-3.64-2.28-7.46-.54-10.5s5-4.66,8.95-4.68l110.85-.48c6.4,0,13.63,4.26,16.87,9.9l11.22,19.54c2.1,3.64,2.28,7.48.54,10.51s-5,4.66-9,4.68l-110.85.47Zm-18.72-34.19,11,19.08c1.38,2.4,5.14,4.67,7.75,4.67v5.23l0-5.23,110-.48-10.95-19.07c-1.39-2.4-5.15-4.67-7.76-4.67Z"/><path class="cls-3" d="M1786.12,1582.19a12.75,12.75,0,0,1-12.93-12.5l-.09-19.57a12.78,12.78,0,0,1,12.88-12.63l105.42-.45a12.8,12.8,0,0,1,13,12.5l.08,19.58a12.79,12.79,0,0,1-12.87,12.63l-105.44.44Zm105.34-34.71-105.43.45a2.34,2.34,0,0,0-2.48,2.14l.08,19.58a2.33,2.33,0,0,0,2.49,2.1v0l105.43-.45a2.34,2.34,0,0,0,2.48-2.13l-.09-19.58A2.33,2.33,0,0,0,1891.46,1547.48Z"/><path class="cls-3" d="M1943.83,1581.52A12.77,12.77,0,0,1,1930.9,1569l-.09-19.57a12.35,12.35,0,0,1,3.84-9,13.08,13.08,0,0,1,9-3.63l105.42-.45a12.79,12.79,0,0,1,13,12.5l.08,19.59a12.34,12.34,0,0,1-3.84,9,13,13,0,0,1-9,3.62l-105.43.46Zm105.35-34.72-105.44.46a2.6,2.6,0,0,0-1.85.72,1.81,1.81,0,0,0-.63,1.41l.09,19.57a2.32,2.32,0,0,0,2.48,2.11v0l105.44-.46a2.63,2.63,0,0,0,1.85-.71,2,2,0,0,0,.62-1.41l-.08-19.58A2.33,2.33,0,0,0,2049.18,1546.8Z"/><path class="cls-3" d="M2101.55,1580.84a12.8,12.8,0,0,1-13-12.52l-.07-19.57a12.23,12.23,0,0,1,3.84-9,13.13,13.13,0,0,1,9.05-3.63l105.42-.45a12.77,12.77,0,0,1,13,12.5l.09,19.58a12.76,12.76,0,0,1-12.89,12.62l-105.42.46Zm105.35-34.72-105.44.45a2.65,2.65,0,0,0-1.86.72,2,2,0,0,0-.63,1.41l.08,19.59a2.34,2.34,0,0,0,2.5,2.11v0l105.43-.47a2.32,2.32,0,0,0,2.47-2.13l-.09-19.57A2.33,2.33,0,0,0,2206.9,1546.12Z"/><path class="cls-3" d="M2265.16,1580.12c-6.26,0-13.43-4.25-16.68-9.91l-11.19-19.52c-2.1-3.67-2.31-7.51-.56-10.54s4.91-4.63,8.83-4.64l108.8-.47c6.3,0,13.48,4.26,16.72,9.91l11.2,19.54c2.11,3.66,2.3,7.5.54,10.54s-4.88,4.61-8.8,4.63l-108.81.46ZM2246.61,1546l10.94,19.08c1.38,2.39,5.07,4.65,7.61,4.65v0l107.78-.46L2362,1550.15c-1.38-2.39-5.07-4.67-7.6-4.67Z"/><path class="cls-3" d="M1160.4,1584.89a12.76,12.76,0,0,1-12.92-12.5l-.09-19.58a12.78,12.78,0,0,1,12.88-12.62l105.43-.45a12.78,12.78,0,0,1,13,12.5l.08,19.59a12.77,12.77,0,0,1-12.88,12.62l-105.42.44Zm105.36-34.71-105.45.46a2.31,2.31,0,0,0-2.47,2.14l.08,19.57a2.33,2.33,0,0,0,2.48,2.11v5.21l0-5.21,105.43-.46a2.34,2.34,0,0,0,2.48-2.12l-.08-19.58A2.33,2.33,0,0,0,1265.76,1550.18Z"/><path class="cls-3" d="M1191,1634.4c-7.34,0-13.34-5.6-13.37-12.51l-.09-19.57c0-6.93,6-12.59,13.33-12.62l111.5-.47c7.4,0,13.4,5.59,13.43,12.49l.08,19.58a12.22,12.22,0,0,1-4.07,9.09,13.78,13.78,0,0,1-9.25,3.52l-111.5.49Zm111.43-34.74-111.51.48c-1.57,0-2.94,1-2.93,2.13l.09,19.58c0,1.13,1.37,2.11,2.92,2.11v5.22l0-5.22,111.48-.48a3.5,3.5,0,0,0,2.28-.82,1.84,1.84,0,0,0,.65-1.32l-.08-19.57C1305.31,1600.62,1304,1599.66,1302.39,1599.66Z"/><path class="cls-3" d="M1256,1683.19c-7.86,0-14.3-5.89-14.32-13.14l-.09-21.31c0-7.28,6.37-13.23,14.28-13.28l124.54-.53c7.93,0,14.36,5.9,14.38,13.15l.1,21.3a12.8,12.8,0,0,1-4.4,9.6,14.92,14.92,0,0,1-9.87,3.68l-124.55.53Zm124.48-37.81-124.57.53c-2.07,0-3.88,1.32-3.87,2.78l.09,21.32c0,1.46,1.82,2.74,3.87,2.74V1678l0-5.22,124.54-.54a4.49,4.49,0,0,0,3-1.06,2.31,2.31,0,0,0,.88-1.72l-.09-21.3C1384.37,1646.66,1382.57,1645.38,1380.5,1645.38Z"/><path class="cls-3" d="M1419.07,1681c-7.87,0-14.3-5.91-14.32-13.15l-.1-21.31c0-7.28,6.37-13.25,14.28-13.28l124.53-.52c7.94,0,14.37,5.89,14.39,13.14l.1,21.31c0,7.28-6.37,13.23-14.29,13.26l-124.53.55Zm124.46-37.83-124.56.54c-2.07,0-3.88,1.3-3.87,2.78l.09,21.3c0,1.48,1.82,2.76,3.88,2.76v5.22l0-5.22,124.53-.53c2.08,0,3.88-1.32,3.88-2.79l-.1-21.31C1547.4,1644.42,1545.64,1643.16,1543.53,1643.16Z"/><path class="cls-3" d="M1583.65,1681.78c-7.87,0-14.3-5.9-14.34-13.15l-.09-21.31c0-7.28,6.39-13.23,14.29-13.26l124.53-.53c7.93,0,14.36,5.88,14.41,13.13l.07,21.31c0,7.29-6.38,13.24-14.27,13.28l-124.54.53ZM1708.1,1644l-124.55.54c-2.07,0-3.89,1.31-3.89,2.79l.11,21.29c0,1.5,1.78,2.76,3.88,2.76v0l124.54-.54c2.09,0,3.89-1.3,3.89-2.78l-.1-21.31C1712,1645.22,1710.2,1644,1708.1,1644Z"/><path class="cls-3" d="M1747.59,1681.08c-7.86,0-14.29-5.9-14.32-13.15l-.09-21.31c0-7.28,6.38-13.24,14.27-13.27l124.55-.54c7.94,0,14.35,5.9,14.38,13.15l.1,21.31a12.61,12.61,0,0,1-3.75,9,14.9,14.9,0,0,1-10.52,4.31l-124.54.54Zm124.47-37.83-124.56.54c-2.07,0-3.89,1.31-3.88,2.79l.09,21.31c0,1.49,1.79,2.75,3.88,2.75v5.22l0-5.22,124.54-.54a4.45,4.45,0,0,0,3.16-1.22,2.2,2.2,0,0,0,.7-1.56L1876,1646C1875.94,1644.54,1874.12,1643.25,1872.06,1643.25Z"/><path class="cls-3" d="M1914.85,1680.35c-7.85,0-14.28-5.89-14.33-13.14l-.09-21.31c0-7.28,6.38-13.24,14.28-13.28l124.54-.53c7.93,0,14.37,5.9,14.38,13.16l.11,21.29a12.81,12.81,0,0,1-4.41,9.6,15,15,0,0,1-9.88,3.68l-124.52.53Zm124.46-37.82-124.54.54c-2.09,0-3.9,1.31-3.9,2.78l.1,21.31c0,1.48,1.79,2.75,3.88,2.75v5.23l0-5.23,124.52-.53a4.75,4.75,0,0,0,3-1.06,2.38,2.38,0,0,0,.87-1.74l-.09-21.3C2043.19,1643.79,2041.42,1642.53,2039.31,1642.53Z"/><path class="cls-3" d="M1935.55,1739c-8.65,0-17.21-6-19.5-13.64l-7.94-26.54a12.58,12.58,0,0,1,1.77-11.26c2.54-3.45,6.84-5.43,11.78-5.46l158-.68c8.72,0,17.27,6,19.57,13.63l7.94,26.53a12.67,12.67,0,0,1-1.77,11.28c-2.54,3.44-6.85,5.43-11.79,5.45l-158,.69Zm144.15-47.14-158,.69a4.35,4.35,0,0,0-3.44,1.22,2.26,2.26,0,0,0-.16,2.06l7.94,26.54c1,3.29,5.42,6.18,9.5,6.18v5.22l0-5.22,158-.69a4.31,4.31,0,0,0,3.45-1.22,2.32,2.32,0,0,0,.16-2.06l-8-26.54C2088.22,1694.77,2083.77,1691.87,2079.7,1691.87Z"/><path class="cls-3" d="M2138,1738.12c-7.49,0-14.53-6.22-16-14.16l-5-26.55a14.22,14.22,0,0,1,2.73-11.74,12.22,12.22,0,0,1,9.54-4.45l123.47-.53c7.56,0,14.6,6.23,16.08,14.17l5,26.55a14.23,14.23,0,0,1-2.74,11.74,12.12,12.12,0,0,1-9.54,4.44l-123.49.53Zm114.79-47-123.52.54a1.86,1.86,0,0,0-1.52.64,3.93,3.93,0,0,0-.52,3.15l5,26.57c.6,3.23,3.52,5.65,5.74,5.65v0l123.5-.54a1.87,1.87,0,0,0,1.53-.64,3.92,3.92,0,0,0,.52-3.15l-5-26.55C2257.92,1693.55,2255,1691.13,2252.79,1691.13Z"/><path class="cls-3" d="M2317.16,1737.38c-6,0-13.53-2.66-16.2-7.74l-7-13.29a7.75,7.75,0,0,1,.14-7.74c1.86-3.11,5.82-4.9,10.88-4.92l123.24-.53c6.11,0,13.62,2.66,16.27,7.73l7,13.29a7.79,7.79,0,0,1-.12,7.75c-1.87,3.1-5.83,4.89-10.9,4.91l-123.23.54Zm-12.53-23.24,5.59,10.65c.51.67,3.5,2.15,6.94,2.15v5.22l.05-5.22,123.23-.54h.42l-5.58-10.65c-.52-.67-3.51-2.14-6.94-2.14l-123.29.53Z"/><path class="cls-3" d="M2077.71,1679.65c-7.87,0-14.3-5.89-14.34-13.15l-.08-21.3a12.82,12.82,0,0,1,4.4-9.6,14.94,14.94,0,0,1,9.88-3.68l124.53-.53c7.94,0,14.36,5.89,14.4,13.14l.08,21.31a12.64,12.64,0,0,1-3.73,9,15,15,0,0,1-10.54,4.3l-124.55.53Zm124.46-37.83-124.56.55a4.55,4.55,0,0,0-3,1.06,2.39,2.39,0,0,0-.87,1.72l.08,21.31c0,1.49,1.78,2.75,3.89,2.75v5.22l0-5.22,124.54-.54a4.46,4.46,0,0,0,3.16-1.2,2.37,2.37,0,0,0,.72-1.58l-.1-21.32C2206.05,1643.09,2204.28,1641.82,2202.17,1641.82Z"/><path class="cls-3" d="M2244,1678.93c-7.44,0-14.45-5-16.35-11.74l-6-21.28a11.26,11.26,0,0,1,1.7-9.94,12.63,12.63,0,0,1,10.18-4.72l124.53-.53c7.49,0,14.52,5,16.39,11.74l6,21.29a11.29,11.29,0,0,1-1.72,9.93,12.56,12.56,0,0,1-10.16,4.72l-124.54.53Zm114.17-37.78-124.56.55a2.4,2.4,0,0,0-1.86.56c-.15.2-.05.63,0,.82l6,21.28c.54,1.91,3.4,4.13,6.29,4.13v5.22l0-5.22,124.53-.53a2.43,2.43,0,0,0,1.86-.57c.17-.2.05-.64,0-.82l-6-21.29C2363.91,1643.37,2361.05,1641.15,2358.17,1641.15Z"/><path class="cls-3" d="M1396.78,1538.19a12.77,12.77,0,0,1-12.93-12.5l-.07-16.16a12.28,12.28,0,0,1,3.84-9,13.1,13.1,0,0,1,9-3.63l108.85-.47a12.82,12.82,0,0,1,13,12.51l.06,16.16a12.76,12.76,0,0,1-12.88,12.61l-108.86.47Zm108.78-31.31-108.86.48a2.62,2.62,0,0,0-1.85.72,1.91,1.91,0,0,0-.63,1.4l.07,16.17a2.32,2.32,0,0,0,2.49,2.1v0l108.86-.47a2.31,2.31,0,0,0,2.47-2.14l-.06-16.14A2.33,2.33,0,0,0,1505.56,1506.88Z"/><path class="cls-3" d="M1547.63,1537.54a12.77,12.77,0,0,1-12.92-12.51l-.07-16.14a12.76,12.76,0,0,1,12.86-12.63l108.86-.47a12.79,12.79,0,0,1,13,12.5l.07,16.17a12.25,12.25,0,0,1-3.85,9,13,13,0,0,1-9,3.62l-108.86.47Zm108.8-31.3-108.87.46a2.33,2.33,0,0,0-2.47,2.14l.06,16.14a2.32,2.32,0,0,0,2.48,2.12v0l108.87-.47a2.62,2.62,0,0,0,1.85-.73,1.91,1.91,0,0,0,.63-1.4l-.06-16.16A2.35,2.35,0,0,0,1656.43,1506.24Z"/><path class="cls-3" d="M1698.49,1536.89a12.79,12.79,0,0,1-12.94-12.5l-.07-16.16a12.34,12.34,0,0,1,3.62-8.77,12.94,12.94,0,0,1,9.27-3.84l108.86-.48a12.81,12.81,0,0,1,13,12.51l.06,16.15a12.35,12.35,0,0,1-3.61,8.76,13,13,0,0,1-9.29,3.85l-108.84.48Zm108.78-31.3-108.85.46a2.7,2.7,0,0,0-1.9.76,2,2,0,0,0-.59,1.37l.06,16.17a2.34,2.34,0,0,0,2.5,2.09v0l108.85-.46a2.56,2.56,0,0,0,1.9-.77,1.89,1.89,0,0,0,.6-1.36l-.07-16.16A2.36,2.36,0,0,0,1807.27,1505.59Z"/><path class="cls-3" d="M1849.34,1536.25a12.81,12.81,0,0,1-12.94-12.51l-.06-16.16a12.3,12.3,0,0,1,3.86-9,13,13,0,0,1,9-3.63l108.87-.46a12.8,12.8,0,0,1,13,12.49l.06,16.15a12.78,12.78,0,0,1-12.88,12.63l-108.85.48Zm108.81-31.32-108.89.48a2.59,2.59,0,0,0-1.83.71,1.9,1.9,0,0,0-.64,1.41l.06,16.16a2.34,2.34,0,0,0,2.49,2.11v0l108.85-.47a2.31,2.31,0,0,0,2.49-2.13l-.06-16.16A2.33,2.33,0,0,0,1958.15,1504.93Z"/><path class="cls-3" d="M2408.84,1678.21c-6.14,0-13.15-4.27-16.33-10l-12.63-22.53c-2.06-3.71-2.25-7.57-.49-10.59a9.68,9.68,0,0,1,8.64-4.54l341.19-1.48c6.18,0,13.2,4.29,16.39,10l12.63,22.55c2.07,3.7,2.25,7.55.47,10.57a9.63,9.63,0,0,1-8.61,4.56l-341.2,1.46ZM2389.22,1641l12.4,22.12c1.47,2.61,5.09,4.62,7.22,4.62v0l340.05-1.46-12.4-22.13c-1.46-2.61-5.09-4.62-7.24-4.62Z"/><path class="cls-3" d="M2478.76,1740.38c-6.21,0-13.24-4.24-16.35-9.84l-19.5-35.16c-2-3.61-2.14-7.4-.39-10.39s4.89-4.59,8.78-4.61l139.73-.78c6.3,0,13.33,4.23,16.44,9.85l19.5,35.14c2,3.61,2.15,7.4.38,10.38s-4.89,4.59-8.79,4.62l-139.74.79Zm-26.45-49.56,19.23,34.65c1.27,2.28,4.78,4.47,7.22,4.47v0l138.78-.79-19.23-34.65c-1.25-2.3-4.77-4.46-7.2-4.46Z"/><path class="cls-3" d="M2648.23,1740c-6.15,0-13.14-4.31-16.26-10l-5.8-10.58c-2-3.71-2.15-7.55-.37-10.57a9.65,9.65,0,0,1,8.62-4.53l132-.57c6.21,0,13.2,4.3,16.33,10l5.8,10.6c2,3.67,2.17,7.52.4,10.53a9.7,9.7,0,0,1-8.65,4.55l-132,.57Zm-12.7-25.24,5.59,10.21c1.41,2.59,5,4.58,7.11,4.58v0l130.95-.56-5.58-10.21c-1.42-2.59-5-4.58-7.12-4.58Z"/><path class="cls-3" d="M2631.81,1626.47c-6.82,0-13.25-8.9-16-14.17l-14.29-27.68a22.47,22.47,0,0,0-2.6-3.39c-.72-.83-1.45-1.66-2.07-2.52l-32.43.14c-6.22,0-13.19-4.33-16.24-10.07l-9.49-17.81c-2-3.7-2.06-7.53-.26-10.53a9.76,9.76,0,0,1,8.66-4.52l123.48-.55c6.14,0,13,4.22,16.12,9.83l40,61.41a4.87,4.87,0,0,1,.27.45c2,3.78,4.8,10.83,1.91,15.59a7.09,7.09,0,0,1-6.12,3.44l-90.93.38Zm-26.45-53.86c.34.46,1,1.23,1.47,1.77a27.71,27.71,0,0,1,4,5.45l14.3,27.67c2.63,5,5.9,8,7,8.53l87.12-.38a21.2,21.2,0,0,0-1.47-3.57l-40-61.35-.24-.39c-1.35-2.55-4.85-4.52-7-4.52l-122.55.53,9.34,17.53c1.35,2.54,4.85,4.51,7,4.51l35.79-.15h0a5.24,5.24,0,0,1,5.15,4.37Z"/><path class="cls-3" d="M1203.05,660a11.7,11.7,0,0,1-16.56,0L1030.27,503.83a11.73,11.73,0,0,1,0-16.57h0a11.71,11.71,0,0,1,16.56,0l156.22,156.22a11.7,11.7,0,0,1,0,16.56Z"/><path class="cls-3" d="M1030.27,660a11.71,11.71,0,0,1,0-16.56l156.22-156.22a11.71,11.71,0,0,1,16.56,0h0a11.71,11.71,0,0,1,0,16.57L1046.83,660a11.7,11.7,0,0,1-16.56,0Z"/><path class="cls-3" d="M2075.23,660a11.7,11.7,0,0,1-16.56,0L1902.45,503.83a11.73,11.73,0,0,1,0-16.57h0a11.71,11.71,0,0,1,16.56,0l156.22,156.22a11.7,11.7,0,0,1,0,16.56Z"/><path class="cls-3" d="M1902.45,660a11.71,11.71,0,0,1,0-16.56l156.22-156.22a11.71,11.71,0,0,1,16.56,0h0a11.71,11.71,0,0,1,0,16.57L1919,660a11.7,11.7,0,0,1-16.56,0Z"/><path class="cls-3" d="M2118.48,991.22a12.16,12.16,0,0,1-4.55-.86c-341.45-135.19-717.55-135.2-1059,0a12.33,12.33,0,0,1-9.08-22.93,1463.06,1463.06,0,0,1,1077.17,0,12.33,12.33,0,0,1-4.53,23.79Z"/><path class="cls-3" d="M1879.14,1207.72c-86.83,0-157.49-70.65-157.49-157.49V888.37a12.34,12.34,0,0,1,24.67,0v161.86c0,73.24,59.59,132.83,132.82,132.83S2012,1123.47,2012,1050.23V948.75a12.34,12.34,0,0,1,24.67,0v101.48C2036.64,1137.07,1966,1207.72,1879.14,1207.72Z"/><path class="cls-3" d="M1879.14,1098.1a12.32,12.32,0,0,1-12.32-12.33V910.38a12.33,12.33,0,1,1,24.66,0v175.39A12.33,12.33,0,0,1,1879.14,1098.1Z"/></g></svg>
