<svg id="ëÎÓÈ_1" data-name="ëÎÓÈ 1" xmlns="http://www.w3.org/2000/svg" viewBox="0 0 1084 920"><defs><style>.cls-1{fill:#fff;}.cls-2{fill:#f9f9f9;}.cls-3{fill:#e5e5e5;}.cls-4{fill:#6a79a8;}</style></defs><title>Artboard 5</title><g id="_Group_" data-name="&lt;Group&gt;"><rect class="cls-1" x="-42" y="-96" width="1200" height="1200"/></g><g id="_Group_2" data-name="&lt;Group&gt;"><path class="cls-2" d="M308.31,887.75c-21.42-4.34-278.82-43.42-259.88-331.66S91.16,181.17,191.24,149.46,534.58-32.32,725.47,110.37,1122.34,381,1040.6,608.86s-95.12,303.83-308.39,292.2S410.18,908.38,308.31,887.75Z"/></g><g id="_Group_3" data-name="&lt;Group&gt;"><path id="_Compound_Path_" data-name="&lt;Compound Path&gt;" class="cls-3" d="M492.57,786.81c0,20.41-12.41,31.23-27.54,31.23-15.67,0-26.67-12.14-26.67-30.09,0-18.83,11.71-31.15,27.55-31.15C482.1,756.8,492.57,769.21,492.57,786.81Zm-46,1c0,12.68,6.86,24,18.92,24s19-11.18,19-24.64c0-11.79-6.16-24.11-18.92-24.11S446.55,774.75,446.55,787.77Z"/><path id="_Compound_Path_2" data-name="&lt;Compound Path&gt;" class="cls-3" d="M541.15,795.43c0,15.75-10.92,22.61-21.21,22.61-11.53,0-20.42-8.44-20.42-21.91,0-14.25,9.33-22.61,21.12-22.61C532.87,773.52,541.15,782.41,541.15,795.43Zm-33.8.44c0,9.33,5.37,16.37,12.94,16.37,7.39,0,12.94-7,12.94-16.55,0-7.21-3.61-16.36-12.76-16.36S507.35,787.77,507.35,795.87Z"/><path id="_Compound_Path_3" data-name="&lt;Compound Path&gt;" class="cls-3" d="M550.91,788.39c0-5.46-.17-9.86-.35-13.9h7l.36,7.3H558c3.17-5.19,8.19-8.27,15.14-8.27,10.29,0,18,8.71,18,21.65,0,15.31-9.33,22.87-19.36,22.87-5.63,0-10.56-2.46-13.11-6.68h-.18V834.5h-7.66Zm7.66,11.35a18,18,0,0,0,.35,3.17A11.94,11.94,0,0,0,570.54,812c8.18,0,12.93-6.68,12.93-16.45,0-8.54-4.49-15.84-12.67-15.84a13.42,13.42,0,0,0-12.23,12.76Z"/><path id="_Compound_Path_4" data-name="&lt;Compound Path&gt;" class="cls-3" d="M599.93,809.16a20.34,20.34,0,0,0,10.21,3.08c5.63,0,8.27-2.82,8.27-6.34,0-3.69-2.2-5.72-7.92-7.83-7.66-2.73-11.27-7-11.27-12.06,0-6.86,5.55-12.49,14.7-12.49a21.22,21.22,0,0,1,10.47,2.64l-1.93,5.63a16.6,16.6,0,0,0-8.72-2.46c-4.57,0-7.12,2.64-7.12,5.8,0,3.52,2.55,5.11,8.09,7.22,7.39,2.82,11.18,6.51,11.18,12.85,0,7.48-5.81,12.76-15.93,12.76a24.3,24.3,0,0,1-12-2.91Z"/><path id="_Compound_Path_5" data-name="&lt;Compound Path&gt;" class="cls-3" d="M633,812.5A5.2,5.2,0,0,1,638.3,807c3.08,0,5.19,2.29,5.19,5.54s-2,5.54-5.28,5.54C635.13,818,633,815.67,633,812.5Z"/><path id="_Compound_Path_6" data-name="&lt;Compound Path&gt;" class="cls-3" d="M651.23,812.5a5.2,5.2,0,0,1,5.28-5.54c3.08,0,5.19,2.29,5.19,5.54s-2,5.54-5.28,5.54C653.34,818,651.23,815.67,651.23,812.5Z"/><path id="_Compound_Path_7" data-name="&lt;Compound Path&gt;" class="cls-3" d="M669.45,812.5a5.2,5.2,0,0,1,5.28-5.54c3.08,0,5.19,2.29,5.19,5.54s-2,5.54-5.28,5.54C671.56,818,669.45,815.67,669.45,812.5Z"/></g><g id="_Group_4" data-name="&lt;Group&gt;"><g id="_Group_5" data-name="&lt;Group&gt;"><g id="_Group_6" data-name="&lt;Group&gt;"><path class="cls-3" d="M563.29,664.12H323.92a19.5,19.5,0,0,1-19.45-19.45h0a19.5,19.5,0,0,1,19.45-19.45H563.29a19.51,19.51,0,0,1,19.46,19.45h0A19.51,19.51,0,0,1,563.29,664.12Z"/></g><g id="_Group_7" data-name="&lt;Group&gt;"><path class="cls-3" d="M586.67,611.78H488.09a15.56,15.56,0,0,1-15.51-15.51h0a15.56,15.56,0,0,1,15.51-15.52h98.58a15.57,15.57,0,0,1,15.52,15.52h0A15.56,15.56,0,0,1,586.67,611.78Z"/></g><g id="_Group_8" data-name="&lt;Group&gt;"><rect class="cls-3" x="491.02" y="676.17" width="184.33" height="31.03" rx="15.52" ry="15.52"/></g><g id="_Group_9" data-name="&lt;Group&gt;"><path class="cls-3" d="M553.33,677.4c-4.8,0-8.7-3-8.7-6.64s3.9-6.64,8.7-6.64h-38c4.8,0,8.7,3,8.7,6.64s-3.9,6.64-8.7,6.64Z"/></g><g id="_Group_10" data-name="&lt;Group&gt;"><path class="cls-3" d="M565.63,625.64c-5,0-9.08-3.1-9.08-6.93s4.07-6.93,9.08-6.93H526c5,0,9.08,3.11,9.08,6.93s-4.06,6.93-9.08,6.93Z"/></g></g><g id="_Group_11" data-name="&lt;Group&gt;"><g id="_Group_12" data-name="&lt;Group&gt;"><rect class="cls-3" x="247.38" y="512.22" width="333.21" height="46.59" rx="19.45" ry="19.45"/></g><g id="_Group_13" data-name="&lt;Group&gt;"><rect class="cls-3" x="163.81" y="573.23" width="381.57" height="91.36" rx="45.68" ry="45.68"/></g><g id="_Group_14" data-name="&lt;Group&gt;"><path class="cls-3" d="M671.9,612.39H490.34a19.64,19.64,0,0,1-19.58-19.58h0a19.64,19.64,0,0,1,19.58-19.58H671.9a19.64,19.64,0,0,1,19.58,19.58h0A19.64,19.64,0,0,1,671.9,612.39Z"/></g><g id="_Group_15" data-name="&lt;Group&gt;"><path class="cls-3" d="M545.37,574.71c-5.75,0-10.42-3.56-10.42-8s4.67-8,10.42-8H499.91c5.76,0,10.42,3.56,10.42,8s-4.66,8-10.42,8Z"/></g><g id="_Group_16" data-name="&lt;Group&gt;"><path class="cls-3" d="M342.56,575.05c-6,0-10.88-3.71-10.88-8.29s4.87-8.3,10.88-8.3H295.1c6,0,10.88,3.71,10.88,8.3s-4.87,8.29-10.88,8.29Z"/></g></g><g id="_Group_17" data-name="&lt;Group&gt;"><g id="_Group_18" data-name="&lt;Group&gt;"><g id="_Group_19" data-name="&lt;Group&gt;"><g id="_Group_20" data-name="&lt;Group&gt;"><path class="cls-3" d="M420.86,586.61l340.42,2.8a8.23,8.23,0,0,0,8.22-7l25.58-166a8.24,8.24,0,0,0-5.73-9.14L463.88,307.47Z"/></g><g id="_Group_21" data-name="&lt;Group&gt;"><g id="_Group_22" data-name="&lt;Group&gt;"><path class="cls-4" d="M419.29,587.58l53,.44,116.21,1,117.08,1c18,.15,36.13,1,54.11.45,6.24-.2,11.29-3.29,12.38-9.62.7-4,1.25-8.09,1.87-12.13q3.94-25.6,7.9-51.23,7.63-49.59,15.28-99.2c.8-5.17-.28-9.77-5.82-11.85-1.41-.53-2.9-.89-4.34-1.33l-27.25-8.36L657.13,365.21,540,329.28,469.31,307.6l-3.45-1.05c-1-.31-4.2.31-4.4,1.57q-7.31,47.43-14.62,94.86l-23.1,149.88q-2.64,17.21-5.3,34.4c-.08.51,4.61.16,4.83-1.3q7.32-47.41,14.62-94.85L461,341.22q2.65-17.19,5.3-34.39l-4.4,1.57,49.25,15.11,108.71,33.34L731.21,391l38.35,11.76c5.77,1.77,11.79,3.21,17.43,5.35,9.07,3.43,4.58,16.1,3.48,23.26q-3.94,25.51-7.87,51.05l-15.12,98.09c-.5,3.28-1.15,7.23-5.1,7.93-1.88.33-4.15,0-6-.05l-30.69-.25L618,587.25l-119.79-1-72.32-.59-3.49,0C421.41,585.63,417,587.56,419.29,587.58Z"/></g></g></g><g id="_Group_23" data-name="&lt;Group&gt;"><g id="_Group_24" data-name="&lt;Group&gt;"><path class="cls-1" d="M429.76,302.22l-31,11.32a11.44,11.44,0,0,0-7.4,9L374.08,434.75l-.54,3.45L356.25,550.39a11.51,11.51,0,0,0,4.34,10.84l26.15,20.12Z"/></g><g id="_Group_25" data-name="&lt;Group&gt;"><g id="_Group_26" data-name="&lt;Group&gt;"><path class="cls-4" d="M428.92,301.64c-10.14,3.71-20.37,7.22-30.43,11.12-9,3.49-9.57,10.62-10.83,18.81q-6.2,40.21-12.4,80.43L356.6,533.09c-1.12,7.3-5.48,20.23-.45,26.78,3.59,4.66,9.87,8.11,14.46,11.65l13.86,10.66c.78.6,4.49-.14,4.66-1.25q7.31-47.41,14.62-94.85l23.1-149.89q2.64-17.19,5.3-34.39c.18-1.18-4.59-.36-4.77.83q-7.31,47.43-14.62,94.86l-23.1,149.89q-2.66,17.19-5.3,34.39l4.66-1.25c-8.47-6.51-17.1-12.86-25.42-19.56-7.4-6-4.41-14.56-3.18-22.53l12.18-79.09q9-58.6,18.07-117.21,1.18-7.67,2.36-15.33c.56-3.65.79-7.55,3.43-10.44,2-2.19,5-2.91,7.65-3.89l10.53-3.85,16-5.83C433.83,301.61,430.8,301,428.92,301.64Z"/></g></g></g></g><g id="_Group_27" data-name="&lt;Group&gt;"><g id="_Group_28" data-name="&lt;Group&gt;"><circle class="cls-1" cx="601.66" cy="471.59" r="92.33"/></g><g id="_Group_29" data-name="&lt;Group&gt;"><g id="_Group_30" data-name="&lt;Group&gt;"><path class="cls-4" d="M614.92,382.21a91.53,91.53,0,0,1,74.71,71.08c7.82,37.1-9.13,76.44-41.67,96s-74.51,16-103.51-8.15a91.71,91.71,0,0,1-27.66-99.57c14.1-40.61,55.73-65.54,98.13-59.34,2.52.37,4.85-3.26,1.61-3.73-38.73-5.67-77.82,12.8-97.34,46.9-20,34.83-14.93,79.95,12.1,109.58,26.55,29.1,69.31,38.53,105.8,23.91,36.66-14.7,61-52,59.28-91.52-1.93-44.69-36-81.77-79.84-88.87C614,378.07,611.69,381.69,614.92,382.21Z"/></g></g></g><g id="_Group_31" data-name="&lt;Group&gt;"><g id="_Group_32" data-name="&lt;Group&gt;"><polygon class="cls-3" points="686.2 374.22 653.17 588.52 528.85 587.5 567.13 339.14 686.2 374.22"/></g><g id="_Group_33" data-name="&lt;Group&gt;"><g id="_Group_34" data-name="&lt;Group&gt;"><path class="cls-4" d="M683.76,374.4q-5.57,36.11-11.14,72.23L654.8,562.3q-2,13.2-4.07,26.4l2.65-2-109-.9-15.31-.13,2.24,1.61q6.45-41.91,12.92-83.83l20.61-133.72L569.57,339l-3.83,1.82,104.41,30.76,14.66,4.32c2.1.62,5.7-2.43,2.78-3.28L583.18,341.82l-14.66-4.32c-1.39-.41-3.58.15-3.84,1.82q-6.46,41.91-12.92,83.83L531.15,556.87q-2.37,15.4-4.75,30.81c-.19,1.26,1.34,1.6,2.24,1.61l109,.89,15.31.13a2.75,2.75,0,0,0,2.65-2q5.57-36.12,11.14-72.24l17.82-115.67q2-13.2,4.07-26.4C689,371.59,684.09,372.2,683.76,374.4Z"/></g></g></g><g id="_Group_35" data-name="&lt;Group&gt;"><g id="_Group_36" data-name="&lt;Group&gt;"><path class="cls-1" d="M465.92,294.22l-47.1,305.64a1.21,1.21,0,0,1-1.53,1l-31.08-9.23a1.19,1.19,0,0,1-.84-1.33l45.77-297a1.19,1.19,0,0,1,1.2-1l32.42.57A1.19,1.19,0,0,1,465.92,294.22Z"/></g><g id="_Group_37" data-name="&lt;Group&gt;"><g id="_Group_38" data-name="&lt;Group&gt;"><path class="cls-4" d="M463.53,294.62q-8,52.1-16.06,104.18L422.15,563.12,418,590.38c-.48,3.12-.28,8-2.07,10.71l2.81-1.4c.95-.13-.05.06-.71-.24a26.06,26.06,0,0,0-3.4-1l-11.33-3.37L392.86,592c-1.35-.4-4.5-.65-5.1-2.13-.24-.58.35-2.24.44-2.84.37-2.43.75-4.86,1.12-7.29q4.94-32,9.86-64Q413,426.18,426.8,336.56l4.92-31.91c.56-3.65.37-9.19,2.22-12.48l-1.53,1.05c-1.9.68-1.75.07-.27.15,1.17.06,2.36,0,3.54.06l11.33.2c2.42,0,15.81-1.2,16.5,1.24.34,1.23,5.17-.07,4.83-1.29-1-3.58-11.56-2-14.31-2-6.56-.12-13.24-.61-19.79-.35-6.12.25-5.68,3.73-6.41,8.44l-9.57,62.12q-7.42,48.09-14.83,96.18l-13.89,90.13L385,577.85c-.56,3.7-2.41,8.93-1.95,12.69.36,3,5.73,3.39,8.2,4.12l21.64,6.42c2.8.83,6.94,1.64,8.39-1.77a17.93,17.93,0,0,0,.6-3.88q4.41-28.65,8.83-57.31l14.55-94.44q7.23-46.85,14.45-93.7l8.25-53.59c.14-.85.27-1.71.4-2.56C468.52,292.5,463.73,293.35,463.53,294.62Z"/></g></g></g></g><g id="_Group_39" data-name="&lt;Group&gt;"><circle class="cls-4" cx="573.08" cy="484.09" r="9.59"/></g><g id="_Group_40" data-name="&lt;Group&gt;"><circle class="cls-4" cx="631.69" cy="458.06" r="9.59"/></g><g id="_Group_41" data-name="&lt;Group&gt;"><g id="_Group_42" data-name="&lt;Group&gt;"><path class="cls-4" d="M588.58,546.32c-1.39-16.22,4.93-32.36,19.29-40.92,7.78-4.65,17.84-6.27,24.58.82,4.2,4.42,6.41,10.46,9,15.86.54,1.15,5.2-.52,4.83-1.29-3.23-6.75-6.12-15.13-12.92-19.17s-15.62-2.26-22.49.39c-18.84,7.26-28.81,25.92-27.12,45.6.07.85,4.94,0,4.83-1.29Z"/></g></g><g id="_Group_43" data-name="&lt;Group&gt;"><g id="_Group_44" data-name="&lt;Group&gt;"><path class="cls-4" d="M588.75,492.37c-1.46-4.92-7.1-4.36-10.63-2.05-4.12,2.69-6.89,7.43-9,11.77-.44.9,2.87.58,3.37-.46,1.51-3.13,10.23-17.21,12.86-8.36.32,1.1,3.7.17,3.38-.9Z"/></g></g><g id="_Group_45" data-name="&lt;Group&gt;"><g id="_Group_46" data-name="&lt;Group&gt;"><path class="cls-4" d="M645.55,466.76c-1.46-4.92-7.1-4.36-10.63-2.05-4.12,2.7-6.89,7.43-9,11.77-.43.9,2.87.58,3.37-.46,1.51-3.13,10.23-17.2,12.86-8.35.33,1.09,3.7.17,3.38-.91Z"/></g></g></g></svg>