<svg xmlns="http://www.w3.org/2000/svg" viewBox="0 0 1400 1000"><defs><style>.cls-1{fill:#fff;}.cls-2{fill:#e3e3e3;}.cls-3{fill:#bbdff5;}.cls-4{fill:#6a79a8;}.cls-5{fill:#def3f9;}.cls-6{fill:#dbdbdb;}.cls-7{fill:#e5e5e5;}.cls-8{fill:#ffc061;}</style></defs><title>error</title><g><rect class="cls-1" width="1400" height="1000"/></g><g><path class="cls-2" d="M286.67,871.7c-12.38-2.94-16.93-6.48-11-10.72,41.4-29.5,227.05-29.91,317.11-30.5,113.27-.75,231.14-2.35,333.13,4,42.68,2.68,139.4,4.74,155.94,14.51,43.38,25.66-111.9,36-315.25,35.66C683.34,884.55,357.34,888.49,286.67,871.7Z"/><path class="cls-3" d="M428.09,748.6c8.09,10.09,11.07,22.32,8.55,37.5-2.43,14.6-8.68,29.62-13.46,44.55-3.66,11.42,20.49,7.6,23.48-2,5.08-16.31,11.45-32.52,13.95-48.44,2.53-16.07-1-30.09-9.67-40.74-3-3.67-9.08-3.36-14.4-1.22-3.16,1.27-11.43,6.64-8.45,10.37Z"/><path class="cls-4" d="M425.88,749.66c15,19.32,8,42.68.79,63.69-1.94,5.64-4.25,11.27-5.8,17-.55,2-.84,4.05.41,5.89,2.51,3.67,8.44,3.44,12.24,2.8,5-.83,10.48-3.05,13.72-7.11,2.3-2.87,2.94-6.91,4.05-10.31,2-6,4-12,5.9-18,6-19.15,10.77-40,.46-58.58-2-3.54-4.37-7.85-8.37-9.38-4.16-1.59-9.16-.66-13.18.92-4.47,1.75-13.68,7.2-10.22,13.07,1.09,1.84,5.7,0,4.43-2.12-1.69-2.87,3.84-6.15,5.8-7.19,4.21-2.23,9.57-3,13.08.73,4.95,5.31,7.74,13.32,9,20.33,3.17,17.68-3.62,36-9.11,52.49q-2.08,6.32-4.15,12.65c-.86,2.66-1.67,4.48-4,6.14-3.28,2.32-9,4.26-13,2.91a3.3,3.3,0,0,1-2.64-3.57c0-3.86,2.88-9.15,4.14-12.77,2.81-8.1,5.68-16.22,7.79-24.54,4.21-16.57,3.92-33.22-6.9-47.18C429,745.82,424.37,747.71,425.88,749.66Z"/><polygon class="cls-5" points="988.35 770.31 584.33 807.66 588.27 806.27 602.04 800.49 591.56 797.61 599.3 792.65 598.9 787.41 999.65 750.55 988.35 770.31"/><path class="cls-4" d="M988.57,768.53l-40.26,3.72-96.63,8.94L735.31,791.94l-101,9.34L601,804.36l-10.28.95c-1.52.14-4-.12-5.44.5a2.45,2.45,0,0,1-.72.07c.08,1.15.16,2.3.23,3.45,6.23-2.2,12.26-4.85,18.34-7.4,1.26-.53,2.12-2.58.32-3.07L593,796l.21,2.75,7.75-5a1.81,1.81,0,0,0,.81-1.76c-.14-1.74-.27-3.49-.41-5.24l-2.63,2.43,39.92-3.68,95.82-8.81,115.4-10.61,100.23-9.22,33-3,10.29-.94c1.44-.13,4.08.14,5.39-.5a2.54,2.54,0,0,1,.68-.06l-2.1-2.06Q991.7,760.16,986,770c-1.34,2.34,3.56,2.42,4.62.56L1002,750.83c.78-1.37-1.07-2.15-2.1-2.06L960,752.44l-95.83,8.82-115.4,10.61L648.5,781.09c-16.14,1.48-32.66,2.09-48.71,4.48-.22,0-.46,0-.68.06-1.33.12-2.74,1-2.63,2.42l.41,5.25.81-1.76-7.75,5a1.49,1.49,0,0,0,.22,2.75l10.48,2.89c.1-1,.21-2,.32-3.07-5.91,2.47-12,5.13-17.09,6.93-2.2.78-2.78,3.73.24,3.45l40.25-3.72L721,796.78,837.37,786l101-9.35c16.25-1.5,32.86-2.14,49-4.53l.72-.06C990.85,771.84,991.86,768.23,988.57,768.53Z"/><polygon class="cls-1" points="1039.19 753.03 430.33 747.2 435.61 728.92 1040.03 734.54 1039.19 753.03"/><path class="cls-4" d="M1039.4,751.25l-60.91-.58L833.3,749.28,657.79,747.6l-152.55-1.46-49.94-.48-15.56-.15c-2.52,0-5.67-.57-8.16-.08a6,6,0,0,1-1,0l2.24,1.6,5.28-18.28-2.66,2,60.07.55,144.27,1.35,174.58,1.62,151,1.4,50,.47,15.38.14c2.5,0,5.62.57,8.09.08a4.61,4.61,0,0,1,1,0l-2.24-1.6-.84,18.49c-.11,2.52,4.8,1.84,4.9-.36l.84-18.49c0-1.26-1.22-1.59-2.24-1.6l-60.07-.56-144.28-1.34-174.57-1.62-151-1.41-50-.46c-7.78-.08-15.7-.6-23.47-.22-.35,0-.7,0-1.05,0a2.82,2.82,0,0,0-2.66,2l-5.28,18.28c-.35,1.23,1.48,1.59,2.24,1.6l60.91.58L636.22,751l175.51,1.68,152.55,1.46,49.94.48c7.86.08,15.87.61,23.72.23.34,0,.69,0,1,0C1041.75,754.83,1042.68,751.28,1039.4,751.25Z"/><path class="cls-5" d="M494.31,767.17s-122.74-4.49-125.18-1.48c.06-.07,41.74-18.75,41.74-18.75l94.31,1.88Z"/><path class="cls-4" d="M495.15,765.4c-37-1.35-74.14-2.89-111.18-2.5-4.29.05-13.37-1.28-16.86,2.07-1.95,1.86,1.74,2.86,3.09,2.15,8.63-4.47,17.86-8,26.72-12,4.58-2.06,9.36-3.89,13.83-6.2,1.45-.75,1.19-.11,0-.19.81.06,1.63,0,2.44,0l68.46,1.37,23.28.46-2.1-2.06q-5.43,9.18-10.87,18.34c-1.37,2.32,3.54,2.4,4.62.57l10.87-18.34c.86-1.45-1.14-2.05-2.1-2.06l-59-1.18-31.58-.64c-5.7-.11-9.8,2.41-15,4.76-10.53,4.72-21.48,9-31.73,14.26l3.09,2.16c-1.18,1.14-1.15.49-.16.55a31.9,31.9,0,0,0,3.5-.27c3.24-.17,6.49-.21,9.73-.24,9.94-.09,19.88.06,29.82.24,21.56.38,43.13,1,64.68,1.73l14.76.51C495.83,769,498.4,765.52,495.15,765.4Z"/><path class="cls-5" d="M567,789.88c-8.54-9.24-21.37-16-31.43-23.56q-16.11-12-32-23.92l-.63-.47-2.76,3.52c-1.62-1.05-9.79-8.14-9.79-8.14s1.48,8.72,2.07,11c-5.34-2.78-17-7.14-17-7.14,2,2.48,17.8,20.43,18,20.66,8.82,10,22.91,17.21,33.77,25.37,8.25,6.19,16.85,12.22,24.92,18.75,3.66-2.74-.39-7.8-1.33-10.46a35.16,35.16,0,0,1,9,1,14.28,14.28,0,0,0,.77-5.82C560.64,790.82,566.5,790,567,789.88Z"/><path class="cls-4" d="M569.24,788.83c-8.68-9.12-19.71-15.21-29.85-22.48-11.67-8.37-23-17.18-34.55-25.79-1-.79-3.11-.28-3.88.69-.92,1.17-1.84,2.35-2.77,3.52l3.88-.69c-3.45-2.43-6.59-5.38-9.78-8.14-1.31-1.13-4.61.15-4.29,2,.63,3.66,1.2,7.37,2.08,11l4.28-2a175.73,175.73,0,0,0-17.46-7.36c-1.25-.47-5.08.84-3.62,2.64,6.93,8.58,14.25,17.65,22.41,25.09,7.64,7,16.68,12.16,25.16,18,10.06,6.93,19.93,14.35,29.46,22,1.1.89,3,.17,3.88-.69,3.72-3.76.78-7.76-.92-11.79L550,797.19a40.92,40.92,0,0,1,8.47.93c1.52.35,3.35-.16,3.84-1.79a18.27,18.27,0,0,0,.77-5.83l-3.29,1.91a33.73,33.73,0,0,0,7.67-.92c3-.58,2.13-3.78-.86-3.22a24.1,24.1,0,0,1-5.11.71c-1,0-3.32.47-3.29,1.91a18.85,18.85,0,0,1-.77,5.83l3.84-1.79a46.65,46.65,0,0,0-9.57-1.17c-1,0-4,.71-3.26,2.37,1.06,2.52,4.29,6.54,1.72,9.13l3.88-.69c-9.11-7.32-18.57-14.35-28.13-21.08-9-6.34-18.91-11.74-26.95-19.36-7.66-7.26-14.63-15.83-21.25-24l-3.62,2.65a164.9,164.9,0,0,1,16.54,6.91c1.31.66,4.8.12,4.28-2-.88-3.62-1.45-7.32-2.08-11l-4.28,2a126.81,126.81,0,0,0,9.79,8.14,3.24,3.24,0,0,0,3.88-.69l2.76-3.52-3.88.69c11.08,8.3,22.1,16.68,33.27,24.86,10.22,7.48,21.63,13.52,30.44,22.77C566.28,792.47,570.86,790.53,569.24,788.83Z"/><polygon class="cls-1" points="982.04 780.73 354.35 783.92 360.27 765.11 983.32 761.84 982.04 780.73"/><path class="cls-4" d="M982.26,779l-62.5.32-150,.76L588.25,781l-156.76.8-51.58.26-15.87.08c-2.57,0-5.86-.52-8.38,0a5.77,5.77,0,0,1-1.1,0l2.1,2.06q3-9.41,5.92-18.8l-2.52,1.49,62.25-.32,148.46-.78,180.48-.95L906.39,764l51.19-.27,16.12-.08c2.53,0,5.91.56,8.39,0a4.87,4.87,0,0,1,1,0l-2.23-1.6q-.64,9.45-1.27,18.89c-.17,2.51,4.74,1.84,4.89-.36q.64-9.45,1.27-18.89c.09-1.25-1.24-1.6-2.23-1.6l-62.26.33-148.46.78-180.47,1-155.14.81L386,763.2c-8.11,0-16.43-.46-24.51.13-.34,0-.68,0-1,0a3,3,0,0,0-2.52,1.49q-3,9.4-5.92,18.81c-.47,1.49.8,2.07,2.1,2.06l62.49-.32,150-.76,181.47-.92,156.76-.8,51.57-.26c8,0,16.21.33,24.25-.13.36,0,.74,0,1.1,0C984.6,782.49,985.54,778.93,982.26,779Z"/><polygon class="cls-1" points="1048.53 734.62 443.96 728.99 451.65 702.06 1049.67 707.38 1048.53 734.62"/><path class="cls-4" d="M1048.74,732.84l-60.09-.56-144.31-1.34-174.62-1.63-151-1.4-50-.47-15.38-.14c-2.51,0-5.63-.56-8.09-.07a6.15,6.15,0,0,1-1.05,0l2.23,1.59,7.69-26.93-2.65,2,59.91.53,142.76,1.28,172.5,1.53,149.13,1.33,49.42.44,15.35.13c2.41,0,5.57.6,7.93.07a5.81,5.81,0,0,1,1,0l-2.24-1.59-1.14,27.23c-.11,2.52,4.8,1.83,4.89-.36l1.14-27.24c.06-1.26-1.21-1.59-2.23-1.59L990,705.07,847.21,703.8l-172.5-1.53-149.14-1.33-49.42-.44c-7.71-.07-15.58-.61-23.28-.21-.33,0-.68,0-1,0a2.82,2.82,0,0,0-2.66,2q-3.84,13.47-7.69,26.94c-.35,1.23,1.48,1.59,2.23,1.59l60.09.56,144.31,1.34,174.62,1.63,151,1.4,50,.47c7.78.07,15.7.6,23.47.22.35,0,.71,0,1,0C1051.08,736.42,1052,732.87,1048.74,732.84Z"/><path class="cls-5" d="M1050.58,698.19l-14.63.54-100.32,3.75c-22.56.84-45.29,1.08-67.84,2.57-.14-1.56-7.79-3.91-8.58-2.92a31.66,31.66,0,0,1,8.8-7.91,34.71,34.71,0,0,1-5.85-.47c1.35-2.28,3.77-3.24,5.9-4.72-6.63.26-13.58.37-20.19.19,2.58-2.45,7.57-3.34,10.84-5.16,6.37-3.58,10.55-5.55,17.37-5.81l99.26-3.7,75.08-2.79Z"/><path class="cls-4" d="M1050.79,696.41l-91.34,3.41c-30.47,1.14-61,1.49-91.45,3.45l2.21,1.13c-1.52-3.35-8.85-5.46-12.07-3.71l3.09,2.16a34.11,34.11,0,0,1,8.38-7.52c1.94-1.19.23-2.91-1.39-2.89A39.54,39.54,0,0,1,863,692c.39.83.79,1.66,1.19,2.49,1.51-2,3.43-3,5.48-4.33,1.87-1.21.29-3-1.39-2.89-6.53.24-13,.36-19.58.2l.78,2.88c2.68-2.17,6.08-2.82,9.15-4.26s6-3.4,9.36-4.57c7.88-2.81,17.48-1.83,25.75-2.14l51.62-1.92,104.85-3.9-2.24-1.6q.08,13.21.16,26.43c0,2.53,4.91,1.82,4.89-.36q-.07-13.21-.16-26.43c0-1.23-1.16-1.64-2.23-1.6l-110.8,4.12-55.6,2.08c-7.27.27-14,.37-20.78,3.41-3,1.36-5.77,3.18-8.85,4.39s-5.84,2.11-8.33,4.12c-1.19,1-1,2.84.77,2.88,6.94.17,13.87.08,20.81-.18-.46-1-.93-1.92-1.39-2.89-2.37,1.53-4.6,2.84-6.32,5.12-.87,1.15-.19,2.32,1.19,2.48a50.18,50.18,0,0,0,6.47.49l-1.39-2.89a37.21,37.21,0,0,0-9.22,8.3c-1.68,2,1.63,3,3.09,2.15-.11.06,4.69,1.23,5.1,2.13a2.06,2.06,0,0,0,2.2,1.13c30.43-2,61-2.31,91.45-3.44l91.33-3.42C1053.11,699.86,1054.08,696.28,1050.79,696.41Z"/><path class="cls-1" d="M839.67,696.1a2.89,2.89,0,0,1-2,.48h-.94l-2.33,0-6.33-.06-18.73-.16-25.64-.23-31.1-.27-35.14-.31-37.72-.33-38.9-.34-38.64-.34-37-.32-33.9-.3-29.41-.26-23.54-.2-16.26-.14-7.58-.07h-.38s7.47-26.17,7.47-26.17l4.72,0,13.29.11,20.56.17,26.55.23,31.27.26,34.67.29,36.8.31,37.62.31,37.14.31,35.34.3,32.24.27,27.81.23,22.06.19,15,.12,4.43,0a4.82,4.82,0,0,1,1.37,0c.15.06.5-.09.6,0,.64.91-5.48,3.15-6.39,3.5-1.62.62-3.25,1.17-4.89,1.7-4.15,1.33-8.3,3-12.46,4.22.38.93,3.71,1,4.68,1.14,2.69.42,5.34,1,8.07,1.22,2.49.23,5.84-.37,8,.7-2.15.81-4.71,1.38-6.68,2.49,2.53,1.17,5.31,2,7.84,3.12-1.51.28-4.76,1.85-5.22,3.4a24.49,24.49,0,0,1,5.24,2A24.78,24.78,0,0,1,839.67,696.1Z"/><path class="cls-4" d="M838.59,694.66c-1.28.64-4.12.11-5.55.1l-8.49-.08-18.94-.16-38.22-.34-77.51-.68-153.34-1.34-82.16-.72,2.24,1.59,7.47-26.16-2.66,2L764,671.36l41.83.35,20.31.17c5,0,11.28-.82,16.08.18l-1.61-1.59c0,.21-7.23,2.67-7.65,2.82-4.69,1.61-9.36,3.31-14.1,4.75-.78.24-2.93,1.61-1.76,2.74,1.84,1.77,4.45,1.62,6.86,2s4.82.91,7.26,1.08,5-.26,7.43.57c.31-1.1.63-2.2.94-3.3a64.61,64.61,0,0,0-7.3,2.73c-1.37.67-2,2.35-.32,3.07,2.58,1.11,5.25,2,7.84,3.12.31-1.1.63-2.21.95-3.31-2.85.78-5.59,2.17-7.09,4.78a1.38,1.38,0,0,0,.92,1.92,35.29,35.29,0,0,1,5.24,2l-.63-2.36c-.5.74-1,1.64-1.6,2.34-1.93,2.36,2.65,3.15,4.05,1.44a27.45,27.45,0,0,0,1.59-2.34,1.43,1.43,0,0,0-.63-2.36,36.38,36.38,0,0,0-5.24-2l.92,1.92a5.94,5.94,0,0,1,3.36-2c1.55-.43,3-2.43.94-3.31-2.59-1.1-5.25-2-7.84-3.11l-.32,3.07a56.41,56.41,0,0,1,6-2.27c1.36-.47,3.18-2.52,1-3.3-3.3-1.15-6.74-.63-10.17-1-2.16-.23-4.29-.74-6.44-1-.77-.11-2.74.09-3.3-.45l-1.77,2.73c6.29-1.91,12.6-4.06,18.73-6.43,1.89-.74,7-2.13,7-4.83,0-1-.73-1.4-1.61-1.58-3.36-.7-7.36-.12-10.77-.15l-18.59-.15L776,667.9l-75.46-.63-154-1.29-84.65-.71a2.81,2.81,0,0,0-2.66,2l-7.47,26.17c-.36,1.23,1.47,1.59,2.23,1.59l308.15,2.7,43.08.38,20.81.18c4.36,0,10.7,1.28,14.74-.72C843.69,696.07,841.05,693.44,838.59,694.66Z"/><polygon class="cls-1" points="1051.51 663.3 464.1 658.45 471.36 633.02 1052.59 637.59 1051.51 663.3"/><path class="cls-4" d="M1051.72,661.52,993.11,661l-140.23-1.15-170-1.4-146.47-1.21-48.23-.4-15-.12c-2.4,0-5.49-.57-7.85-.07a4.59,4.59,0,0,1-1,0l2.24,1.59,7.26-25.43-2.66,2,58,.46,139.16,1.09L836,637.67l144.93,1.14,47.76.37,14.88.12c2.38,0,5.46.57,7.8.06a5.58,5.58,0,0,1,1,0l-2.24-1.6q-.54,12.86-1.07,25.71c-.11,2.52,4.8,1.83,4.89-.37l1.08-25.7c0-1.26-1.22-1.59-2.24-1.6l-58-.45-139.16-1.1L687.94,633,543,631.81l-47.76-.38c-7.49-.06-15.2-.64-22.68-.18-.33,0-.67,0-1,0a2.82,2.82,0,0,0-2.66,2l-7.26,25.43c-.35,1.23,1.48,1.59,2.24,1.59l58.62.49,140.22,1.15,170,1.4,146.46,1.21,48.23.4c7.55.06,15.32.65,22.86.19.32,0,.66,0,1,0C1054.07,665.1,1055,661.54,1051.72,661.52Z"/><path class="cls-5" d="M1063.44,626.47,513.44,644c.76-3.39,2.43-1.91,5.73-3.7,1.69-.92,7-3.09,8.51-3.12-3.89.07-7-4.21-11-3.71,7.43-1.14,16.85-3.29,24-6.9-4.63-.71-8.7-2.49-12.93-3.94-1.91-.65-9.62-1.39-8.71-3.69a4.25,4.25,0,0,0,1.23,0c1.87-.67,5-.16,6.8-.21l12.24-.4,38.55-1.24,53.62-1.72,64.21-2.06L766.08,611l72-2.31,69.05-2.22,61.62-2,49.63-1.59,33.07-1.06c.6,0,11.95-.4,11.95-.38C1063.36,602.05,1063.44,626.47,1063.44,626.47Z"/><path class="cls-4" d="M1063.66,624.69l-54.86,1.75-131.68,4.2-158.68,5.07-137.13,4.37-45.21,1.45-14.17.45c-2.14.07-5.27-.42-7.33.23a3.75,3.75,0,0,1-1,0l2.1,2.06c.67-2.15,9.43-5,11.72-5.32,1.94-.25,4.18-3.23,1-3.54-4.25-.42-7.11-3.73-11.59-3.73l-.42,3.56c8.7-1.39,17.34-3.41,25.32-7.24,1.73-.83,1.78-2.83-.24-3.2-1-.19-20.12-5.35-20-6.05l-3.28,1.94c6.54.36,13.43-.38,20-.59l27.86-.9,56.25-1.8,111.24-3.58,225.92-7.25c34.48-1.11,69.09-3.23,103.6-3.32l-2.24-1.6.09,25c0,2.54,4.9,1.83,4.89-.36l-.09-25c0-1.25-1.16-1.6-2.23-1.6-29.54.08-59.17,1.89-88.7,2.84l-113,3.63-222.39,7.14-62.36,2-30.85,1-14.61.47c-3.78.12-8,.6-11.78.39-1.22-.07-3.09.47-3.28,1.95-.4,3.18,4.11,3.89,6.37,4.4,5.73,1.3,11.08,3.75,16.89,4.82l-.24-3.2c-7.16,3.44-14.94,5.31-22.75,6.55-2.61.42-3.81,3.56-.42,3.56,3.57,0,6.68,3.34,10.35,3.7.34-1.18.69-2.36,1-3.54-3.51.46-6.56,2.17-9.79,3.46-3.07,1.22-5.86,1.3-7,4.85-.46,1.46.79,2.1,2.1,2.06l54.85-1.75,131.68-4.2,158.69-5.07,137.13-4.37,45.21-1.44c7.11-.23,14.4,0,21.49-.69.31,0,.64,0,1,0C1066,628.16,1067,624.59,1063.66,624.69Z"/><path class="cls-3" d="M1084.88,590.86a28.36,28.36,0,0,0-13.24,3c-30.78,15.4-32.12,60.16-28.89,89C1045,703,1046,734.8,1022.22,745c-19.36,8.33-39.12,9.38-53.62,27.94-10.73,13.73-14.15,31.67-15.46,48.66-.73,9.4-.2,19-1,28.58-5.15-.53-12.69,1.77-15.69,7-4,7.06-.95,12.73,5.78,15,7.25,2.44,17,.93,23.67-3.6,7.29-4.93,9.42-13.09,9.67-21.28.31-10.43.24-20.75,1.11-31,2-23.92,10.1-49.39,36.46-54.12,4.56-.82,9.5-.74,13.32,1.7,21,13.37,10.22,62.51,8.42,83.76-.37,4.36,2.73,6.54,6.8,7,6.79.84,16.21-3,16.66-9.1,1.16-15.73,2.85-31.46,2.18-46.82-.91-20.87-4.21-41.36-.32-61.58,4.56-23.68,2.77-48.08,2.92-71.34.13-21.16.9-43.84,16.46-60,2-.49,3.17,2.17,2.66,4.07-1,3.93-2.46,7.65,2.91,9.59,6.56,2.36,14.84-1.46,17.22-7.7C1106.5,600.83,1095.69,591.14,1084.88,590.86ZM956.48,856.81l0,0h0l0,0Zm71.59-114.35Z"/><path class="cls-4" d="M1085.77,589.31c-20.31.17-34.76,16.84-41,34.74-6.38,18.19-6.54,38.38-4.62,57.37,1.78,17.67,3.9,39.92-8.4,54.6-7.59,9.05-20.3,11.42-31,15-10.37,3.48-20.45,7.76-28.55,15.32-10.25,9.56-15.92,22.77-18.81,36.27-3.39,15.84-2.43,31.79-3.66,47.82l3.32-1.79c-6.91-.43-15.15,2.1-18.86,8.37-4,6.76-1.23,13.64,6,16.35,7.7,2.91,17.08,1.53,24.28-2.15,7.85-4,12.17-11.26,13.25-19.87,1.49-11.87.42-24.06,1.5-36a98.07,98.07,0,0,1,5.14-25c3.09-8.41,8.05-16.46,15.61-21.52,8.11-5.43,20.65-8.77,28.15-.82,10.14,10.74,9.23,29.42,8.36,43-.48,7.54-1.38,15-2.32,22.53-.63,5-3.5,14.08-.77,18.67,3.55,6,13.64,4.38,18.87,2.17,2.82-1.19,5.78-3,7.39-5.71,2.44-4.09,1.73-10.62,2.09-15.2,1-12.45,1.78-24.89,1.15-37.38-.65-13.08-2.19-26.12-2-39.23.14-14,3.6-27.66,4.46-41.65.86-13.78.43-27.58.32-41.38-.19-23.16-.85-49.45,16-67.57l-2.86,1c1.69.08-.08,8.58.62,10.12,1.19,2.58,4.31,3.65,6.93,4.05a18.31,18.31,0,0,0,16.2-6c10.36-12.26-4.43-25.43-16.64-26.18-2.09-.12-5,2.9-1.79,3.1,10.19.62,23.68,13,13.61,22.94-3.58,3.53-14.65,5.51-13.8-2.33.32-3,2.39-7.18-1.71-8.66-3.49-1.26-5.79,2.14-7.62,4.43a52.84,52.84,0,0,0-7.23,12.11c-4.06,9.44-5.58,19.7-6.17,29.89-1.39,23.84,1,47.76-1.21,71.57-1.23,13.08-4.11,25.64-3.94,38.87.16,12.74,1.66,25.42,2.17,38.15.54,13.53-.68,27-1.75,40.52-.21,2.72.13,6.05-1.31,8.5s-4.74,3.86-7.37,4.43c-2.83.61-7.2.86-9.23-1.66-1.57-1.95-1.1-4.44-.86-6.72,1.62-15.39,4.28-30.69,4-46.21-.19-12.38-1.85-30.15-14.6-36.4-7.35-3.6-17-1.25-24.11,1.88a40.91,40.91,0,0,0-17.48,15c-12.53,18.79-11.71,43.36-12.21,64.93-.14,5.87-.27,11.92-3,17.28-3.43,6.72-10.58,10.24-17.9,10.8-5.55.42-13.73-1-15.12-7.49-1.72-8,7.32-12.89,14-12.47,1,.06,3.22-.47,3.32-1.79,2-25.72-.91-53.47,15.36-75.55,7.89-10.71,19.26-16.4,31.57-20.54,9.21-3.1,19.61-5.37,27.73-10.94,14.7-10.09,17.42-29.36,17-45.88-.43-17.74-3.4-34.92-1.26-52.74,2.51-20.86,13.34-51.69,39-51.89C1086,592.39,1089,589.29,1085.77,589.31Z"/><path class="cls-4" d="M1027.17,744c2,0,5-3.09,1.79-3.09C1026.91,740.92,1023.92,744,1027.17,744Z"/><path class="cls-6" d="M513,588c-11.55-.06-27.32,11.09-35.51,19.44a98.5,98.5,0,0,0-21.67,35.09c-5.56,15.23-7.68,30.6-11.26,46.19-3,13.21-6.9,34-20.44,44.33-4.9,3.72-10.61,5.78-16.17,7.5-14.18,4.38-28.92,7.31-42.28,15.78-14.55,9.21-25.75,24.08-33,39.26-7.3,15.36-11,31.27-14.76,47.18-4.49.32-9.31,1.15-13.69,4s-8.09,8.17-7.38,12.32c.62,3.66,4.27,5.23,7.89,5.95,8.65,1.71,20-.36,27.79-8.44,5.42-5.62,7.94-12.89,9.83-19.66,3.44-12.34,5.65-24.57,10.21-36.64s11.76-24.13,22.47-32.42c19.55-15.15,45-13.5,64.49-28.1,11.1-8.32,18.33-20.69,22.34-32.6s5.26-23.47,7.43-35A177.63,177.63,0,0,1,485,624.37c4.34-8.56,10.73-17.81,20-21.08,5.18-1.82,11.77-2.28,14.44-6.88,2.31-4-.92-8-5.18-8.33C513.85,588.05,513.41,588,513,588Z"/><path class="cls-3" d="M513,588c-11.55-.06-27.32,11.09-35.51,19.44a98.5,98.5,0,0,0-21.67,35.09c-5.56,15.23-7.68,30.6-11.26,46.19-3,13.21-6.9,34-20.44,44.33-4.9,3.72-10.61,5.78-16.17,7.5-14.18,4.38-28.92,7.31-42.28,15.78-14.55,9.21-25.75,24.08-33,39.26-7.3,15.36-11,31.27-14.76,47.18-4.49.32-9.31,1.15-13.69,4s-8.09,8.17-7.38,12.32c.62,3.66,4.27,5.23,7.89,5.95,8.65,1.71,20-.36,27.79-8.44,5.42-5.62,7.94-12.89,9.83-19.66,3.44-12.34,5.65-24.57,10.21-36.64s11.76-24.13,22.47-32.42c19.55-15.15,45-13.5,64.49-28.1,11.1-8.32,18.33-20.69,22.34-32.6s5.26-23.47,7.43-35A177.63,177.63,0,0,1,485,624.37c4.34-8.56,10.73-17.81,20-21.08,5.18-1.82,11.77-2.28,14.44-6.88,2.31-4-.92-8-5.18-8.33C513.85,588.05,513.41,588,513,588Z"/><path class="cls-4" d="M513.93,586.8c-18.95.5-37,16.55-47.44,31.11-15.21,21.16-18.77,46.38-24.38,71.18-2,8.71-3.84,17.52-7.28,25.81-5,12.17-13,20-25.68,24.15-11.11,3.62-22.6,6.07-33.38,10.69a81,81,0,0,0-26.72,18.52c-19.69,20.54-27.24,47.91-33.54,74.88l2.77-1.53c-6,.51-12.26,1.9-17.15,5.7-3.89,3-8.74,9.09-6,14.24,2.3,4.37,8.81,5.07,13.17,5.23a37.09,37.09,0,0,0,16.7-3.33C339,857,343.21,843,346.7,829.19c4.12-16.36,7.79-33,17.45-47.19,9.89-14.51,24-21.56,40.44-26.46,13.07-3.9,26.52-7.5,37.49-16,27.31-21.16,25.45-57.29,34.31-87.46a159.51,159.51,0,0,1,11-28.06c4.18-8.14,10-17.08,19.12-20.08,5.05-1.66,11.54-2.32,14.83-7.07,4-5.84-2.1-9.84-7.43-10.07-1.65-.08-5.18,2.31-1.95,2.45,6.13.28,7.62,6.69,2.61,9.81-2.51,1.57-5.83,1.91-8.62,2.79a31.29,31.29,0,0,0-12.66,7.53c-8.92,8.62-14.07,21.31-18.23,32.74-5.12,14-7.87,28.51-10.41,43.19-2.35,13.6-5.58,27.09-13.11,38.86-7.8,12.19-19,20-32.51,24.67-11.5,4-23.54,6.43-34.56,11.78-24,11.65-34.16,35.52-40.32,60.07-3.76,15-6.24,35.26-22.66,41.8-5.29,2.11-18.76,4.15-21.89-2.78-1.73-3.85,1.51-8.45,4.2-10.9,3.81-3.48,8.77-4.42,13.72-4.84.79-.06,2.56-.59,2.77-1.52,5.45-23.3,11.53-46.81,26.29-66.17,7.51-9.86,16.84-18.15,28.07-23.53,10.92-5.22,22.8-7.74,34.28-11.37,8.6-2.72,16.73-6.4,22.65-13.43,5.65-6.69,9-15.09,11.37-23.41,6.27-21.55,8-44.37,16.35-65.31a95.6,95.6,0,0,1,20.36-31.8c8.08-8.2,20.31-17.85,32.3-18.18C513.6,589.21,517.16,586.71,513.93,586.8Z"/><path class="cls-6" d="M986,741.07s18.12-13.65,36,4.54c8.12,8.25,9.5,20.76,7.48,31.68-2.13,11.57-9.75,20.6-20.75,25.08-4.55,1.86-9.53,1.61-14.24,2.77-3.92,1-9.32,1.51-12.49,4l-8.75,6.8c-2,1.59-4.16,3.24-5.43,5.51s-1.53,5.31.11,7.33c3.75,4.65-1.75,7.13-6.5,6.43a10.72,10.72,0,0,1-6.09-3.5A16.88,16.88,0,0,1,951,818.2c1.18-9.41,9.27-13,16.66-17,6.4-3.48,13.24-7,20.47-8.28,8.12-1.4,16.76-2,22.6-8.58,5.6-6.3,6.77-15.06,4.85-23.06-2.2-9.22-7.85-16.28-17.78-16.25C996.26,745.06,981.59,744.93,986,741.07Z"/><path class="cls-4" d="M987.84,741.21a21.9,21.9,0,0,1,20-2.68c12.51,4.35,19.64,16.37,20.06,29.16.38,11.71-3.7,23.29-13.42,30.36-10.14,7.36-24,4-34.32,10.92-4.4,2.93-10.41,7-13.66,11.29a9.47,9.47,0,0,0-2,4.26,6.81,6.81,0,0,0,.35,3.79c.46.79.95,1.55,1.46,2.3,1.19,2.19-.25,3.28-4.29,3.26-5.88-1.11-9-9.76-8.77-14.86.23-6.24,4.17-10.64,9.26-13.78a121.49,121.49,0,0,1,16.67-8.68c6.21-2.61,12.73-3,19.19-4.56,9.88-2.4,17.93-8.47,19.94-18.92,1.85-9.6-1.34-22.63-10.81-27.27-3.47-1.7-7-1.71-10.72-1.86-1.62-.06-11-.53-8.62-3,1.09-1.13-3.53-.65-4.4.26-4.57,4.74,10.06,4.82,12.17,4.91,14.34.62,20.43,16.67,17.28,29.24-2.4,9.56-9.72,14-18.93,15.65-6.51,1.15-12.58,2.35-18.67,5.06a138,138,0,0,0-16.84,8.88c-4.42,2.75-8.43,6.34-9.79,11.55-2.79,10.63,5.65,22.52,17.1,19.26,4.36-1.25,6.43-3.44,4.26-7.65-4.05-7.86,7.12-14.53,12.8-18.28,7.05-4.66,16.22-3.7,24.09-6a37.06,37.06,0,0,0,14-8c9.42-8.44,12.81-21.58,11.07-33.87-3.16-22.45-29.62-34.8-48.23-21.05C982.1,742.4,986.9,741.9,987.84,741.21Z"/><path class="cls-6" d="M957.83,762.31c-22.69,1.32-47.45-1.31-57.33-23.21-16-35.46,60.93-32.34,75.64-28.42,9.21,2.46,18.5,6.35,24.6,13.69s8,18.84,2.14,26.39c-5,6.53-14,8.39-22.21,9.32C973.84,760.86,966,761.84,957.83,762.31Z"/><path class="cls-4" d="M958.78,761c-19.66,1.07-44-.51-54.61-20-2.67-4.92-4.7-11-2.43-16.43,2-4.77,6.67-7.66,11.26-9.55,12-5,26.07-5.47,38.9-5.27s25.74,1.36,37.17,7.85c10.86,6.17,20.57,21.31,11.56,33.14-4.55,6-12.66,7.22-19.62,8.07-7.59.92-15.2,1.75-22.84,2.23-2.34.14-4,2.78-.69,2.57,7.64-.48,15.25-1.31,22.85-2.23,5.78-.7,11.62-1.73,16.89-4.34,10.68-5.29,14.27-17,9.35-27.81-7.55-16.55-28.39-20.84-44.84-21.83-15.13-.92-31.25-.52-45.82,4-11.09,3.47-22.93,11-19.28,24.35,7.11,26,37.86,29.08,60.25,27.87C958.6,763.54,962,760.81,958.78,761Z"/><path class="cls-7" d="M903.18,760.44a3.15,3.15,0,0,0-1.37,3.58,4,4,0,0,0,3.26,2.24,7.06,7.06,0,0,0,4-.66c1-.48,2.54-1.45,2.48-2.73a2.25,2.25,0,0,0-.92-1.61,4.78,4.78,0,0,0-1.73-.79c-1.55-.43-3.86-.82-5.4-.2Z"/><path class="cls-4" d="M902,760.2c-2.29,1.7-2.42,4.79.23,6.21s6.14.69,8.56-.83c2.16-1.35,3.21-3.92.46-5.37-2.4-1.26-6.2-1.6-8.66-.37-1.79.9-.14,1.85,1.15,1.2,2.07-1,8.92,1.2,5.25,3.67a4.25,4.25,0,0,1-4.9,0,2.44,2.44,0,0,1,.24-4c.57-.43.19-.84-.28-1A2.49,2.49,0,0,0,902,760.2Z"/><path class="cls-7" d="M922.18,764.43c.09,1.81,2.62,3.63,4.2,3.77a4.76,4.76,0,0,0,4.74-3c.34-.87,1.5-3.29.47-4a2.33,2.33,0,0,0-1.25-.29,16.67,16.67,0,0,0-5.81.95,4.31,4.31,0,0,0-1.73,1A2,2,0,0,0,922.18,764.43Z"/><path class="cls-4" d="M920.73,764.82c.42,2.76,3.65,4.64,6.27,4.44,3.14-.23,5.11-2.46,6.06-5.27.34-1,.76-2.37,0-3.27s-2.66-.87-3.88-.8c-2.87.18-8.14,1-8.44,4.62-.13,1.5,2.82,1.11,2.93-.22.16-1.93,3.82-2.17,5.26-2.26.86,0,1.44-.28,1.62.57a4.62,4.62,0,0,1-.61,2c-.54,1.36-1.59,2.78-3.26,2.47a4,4,0,0,1-3-3C923.42,762.7,920.51,763.42,920.73,764.82Z"/><path class="cls-7" d="M948,739.54a12.31,12.31,0,0,1,.07,2.11c-.7,14.07-17.52,20.74-29.62,20.74-16.41,0-29.71-10.24-29.71-22.87,0-5.09,2.57-10.24,4-15.18a5.22,5.22,0,0,1,.71-1.65c1.15-1.57,2.81-1.06,4.61-1.26a14.36,14.36,0,0,0,5.34-1.64,37.7,37.7,0,0,1,28.46-.68c1.92.75,3.69,2.23,5.6,2.85,2.2.7,4.94.4,7.37.4,1.74,2.89.43,5.35.94,8.19C946.32,733.65,947.63,736.46,948,739.54Z"/><path class="cls-4" d="M945.57,740.18c.94,12.34-11.35,19.6-22.16,20.87-11.36,1.34-25.28-3.37-30.47-14.31-2.82-6-1.54-11.78.51-17.79.49-1.44.81-3.83,1.68-5,1-1.37-.2-.79,1.91-1.43,1.92-.58,3.85-.67,5.78-1.4,8.25-3.12,16-4.49,24.68-1.82,3.06.94,5.6,3,8.68,3.82,2.47.63,5.12.38,7.63.34l-1.4-.46c1.24,2.75.55,5.29.93,8.18.4,3,1.73,5.95,2.23,9,.19,1.2,5.06.13,4.83-1.29-.5-3.06-1.8-5.94-2.23-9s.34-5.36-.93-8.19c-.23-.5-1-.46-1.41-.45a21.35,21.35,0,0,1-10.6-2.49,33.57,33.57,0,0,0-10.07-2.86,42.67,42.67,0,0,0-18.07,1.51,88.57,88.57,0,0,1-10.58,3,9.81,9.81,0,0,0-4.16,1.38c-1.84,1.33-2.12,3.34-2.81,5.39-1.23,3.64-2.76,7.27-3.13,11.13-1,10.37,6.92,18.55,15.9,22.31,9.25,3.87,19.91,3.59,29.31.39,9.76-3.33,19.65-10.71,18.78-22.15C950.31,737.78,945.45,738.68,945.57,740.18Z"/><path class="cls-1" d="M945.2,721.08c.9-.37,1.91-.66,2.47,0s.45,1.74.37,2.79a21.08,21.08,0,0,1-.61,4.09,7.92,7.92,0,0,1-2.13,3.68,19.56,19.56,0,0,1-2.25-.92,5.8,5.8,0,0,1-1.71-1.6,6.46,6.46,0,0,1-1.45-4.52C940.07,722.85,943.7,721.7,945.2,721.08Z"/><path class="cls-1" d="M891,721.69c0-1,0-2,.8-2.33s1.79.15,2.76.58a20.4,20.4,0,0,1,3.64,1.95c.62.44,1.88,1.29,2.07,2.06s-.67,2.27-1.2,2.88a5.66,5.66,0,0,1-6.56,1C891,727.12,891.13,723.32,891,721.69Z"/><path class="cls-1" d="M913,747.42c.72.66,1.4,1.46,1.07,2.23s-1.38,1.14-2.38,1.51a20.68,20.68,0,0,1-4,1.17c-.75.12-2.25.39-2.92,0s-1.11-2.08-1.16-2.89a5.67,5.67,0,0,1,3.95-5.33C909.2,743.51,911.77,746.32,913,747.42Z"/><path class="cls-1" d="M914.11,751.72c-.62-.75-1.19-1.63-.76-2.35s1.53-.94,2.56-1.17a20.67,20.67,0,0,1,4.09-.62c.76,0,2.28-.08,2.89.42s.82,2.22.75,3a5.64,5.64,0,0,1-4.64,4.74C917.31,756.11,915.14,753,914.11,751.72Z"/><path class="cls-4" d="M894.26,728l-.2-4.87c0-.76-.09-1.52-.09-2.27a4,4,0,0,1,0-.85c.16-.49.12-.54-.1-.16l-2.44.66c1,.05,2.45,1.32,3.35,1.83l3.79,2.16c1.55.88,5.94-1.31,3.8-2.52s-4.2-2.42-6.32-3.59c-1.74-1-3.63-1.39-5.42-.19a3.72,3.72,0,0,0-1.54,3.6c.07,2.5.21,5,.31,7.49.07,1.79,4.91.76,4.83-1.29Z"/><path class="cls-4" d="M940.58,724.5l8.37-3.61-3.31-.1a13.67,13.67,0,0,1,.31,6.78c-.41,1.87-1.6,3.27-2.15,5-.4,1.29,4.36.66,4.8-.74.63-2,1.93-3.6,2.29-5.81a14.81,14.81,0,0,0-.42-6.55c-.29-1-2.78-.33-3.3-.1L938.8,723c-3.11,1.34-.21,2.35,1.78,1.49Z"/><path class="cls-4" d="M904,738.56a10.14,10.14,0,0,0,4.22,1.65,6.68,6.68,0,0,0,3.1-.33q1.4-.58-.6.15l.65-.14a8.61,8.61,0,0,0,1.61-.58c.54-.26,1.53-1,.54-1.43s-2.49.15-3.39.57c1.28-.39,1.55-.5.83-.33l-.56.13a8.09,8.09,0,0,0-1.37.53l3-.65a5.88,5.88,0,0,1-1.77-.31c-.59-.27-1.12-.66-1.69-1a4,4,0,0,0-3.13.18c-.25.1-2.22,1.07-1.4,1.53Z"/><path class="cls-4" d="M917.3,741.24c2.73,2.22,6.63,1.83,9.81,1,.93-.25,2.27-1.09,2-2.25s-2-1.19-2.84-1c-1.83.5-3.65.77-5.21-.5s-5.86,1-3.74,2.73Z"/><path class="cls-4" d="M920.63,754.7c-2.36.25-3.94-2.28-4.66-4.12-.48-1.22-2.53-.75-3.38-.41-1.32.54-4.74,2.21-5.78.16-.87-1.71-5.58-.18-4.83,1.3,2.26,4.46,9.07,2.07,12.55.65l-3.39-.4c1.54,3.92,4.63,6.07,8.86,5.62,2.41-.26,4-3.15.63-2.8Z"/><path class="cls-8" d="M986,741.07s18.12-13.65,36,4.54c8.12,8.25,9.5,20.76,7.48,31.68-2.13,11.57-9.75,20.6-20.75,25.08-4.55,1.86-9.53,1.61-14.24,2.77-3.92,1-9.32,1.51-12.49,4l-8.75,6.8c-2,1.59-4.16,3.24-5.43,5.51s-1.53,5.31.11,7.33c3.75,4.65-1.75,7.13-6.5,6.43a10.72,10.72,0,0,1-6.09-3.5A16.88,16.88,0,0,1,951,818.2c1.18-9.41,9.27-13,16.66-17,6.4-3.48,13.24-7,20.47-8.28,8.12-1.4,16.76-2,22.6-8.58,5.6-6.3,6.77-15.06,4.85-23.06-2.2-9.22-7.85-16.28-17.78-16.25C996.26,745.06,981.59,744.93,986,741.07Z"/><path class="cls-4" d="M987.84,741.21a21.9,21.9,0,0,1,20-2.68c12.51,4.35,19.64,16.37,20.06,29.16.38,11.71-3.7,23.29-13.42,30.36-10.14,7.36-24,4-34.32,10.92-4.4,2.93-10.41,7-13.66,11.29a9.47,9.47,0,0,0-2,4.26,6.81,6.81,0,0,0,.35,3.79c.46.79.95,1.55,1.46,2.3,1.19,2.19-.25,3.28-4.29,3.26-5.88-1.11-9-9.76-8.77-14.86.23-6.24,4.17-10.64,9.26-13.78a121.49,121.49,0,0,1,16.67-8.68c6.21-2.61,12.73-3,19.19-4.56,9.88-2.4,17.93-8.47,19.94-18.92,1.85-9.6-1.34-22.63-10.81-27.27-3.47-1.7-7-1.71-10.72-1.86-1.62-.06-11-.53-8.62-3,1.09-1.13-3.53-.65-4.4.26-4.57,4.74,10.06,4.82,12.17,4.91,14.34.62,20.43,16.67,17.28,29.24-2.4,9.56-9.72,14-18.93,15.65-6.51,1.15-12.58,2.35-18.67,5.06a138,138,0,0,0-16.84,8.88c-4.42,2.75-8.43,6.34-9.79,11.55-2.79,10.63,5.65,22.52,17.1,19.26,4.36-1.25,6.43-3.44,4.26-7.65-4.05-7.86,7.12-14.53,12.8-18.28,7.05-4.66,16.22-3.7,24.09-6a37.06,37.06,0,0,0,14-8c9.42-8.44,12.81-21.58,11.07-33.87-3.16-22.45-29.62-34.8-48.23-21.05C982.1,742.4,986.9,741.9,987.84,741.21Z"/><path class="cls-8" d="M957.83,762.31c-22.69,1.32-47.45-1.31-57.33-23.21-16-35.46,60.93-32.34,75.64-28.42,9.21,2.46,18.5,6.35,24.6,13.69s8,18.84,2.14,26.39c-5,6.53-14,8.39-22.21,9.32C973.84,760.86,966,761.84,957.83,762.31Z"/><path class="cls-4" d="M958.78,761c-19.66,1.07-44-.51-54.61-20-2.67-4.92-4.7-11-2.43-16.43,2-4.77,6.67-7.66,11.26-9.55,12-5,26.07-5.47,38.9-5.27s25.74,1.36,37.17,7.85c10.86,6.17,20.57,21.31,11.56,33.14-4.55,6-12.66,7.22-19.62,8.07-7.59.92-15.2,1.75-22.84,2.23-2.34.14-4,2.78-.69,2.57,7.64-.48,15.25-1.31,22.85-2.23,5.78-.7,11.62-1.73,16.89-4.34,10.68-5.29,14.27-17,9.35-27.81-7.55-16.55-28.39-20.84-44.84-21.83-15.13-.92-31.25-.52-45.82,4-11.09,3.47-22.93,11-19.28,24.35,7.11,26,37.86,29.08,60.25,27.87C958.6,763.54,962,760.81,958.78,761Z"/><path class="cls-8" d="M903.18,760.44a3.15,3.15,0,0,0-1.37,3.58,4,4,0,0,0,3.26,2.24,7.06,7.06,0,0,0,4-.66c1-.48,2.54-1.45,2.48-2.73a2.25,2.25,0,0,0-.92-1.61,4.78,4.78,0,0,0-1.73-.79c-1.55-.43-3.86-.82-5.4-.2Z"/><path class="cls-4" d="M902,760.2c-2.29,1.7-2.42,4.79.23,6.21s6.14.69,8.56-.83c2.16-1.35,3.21-3.92.46-5.37-2.4-1.26-6.2-1.6-8.66-.37-1.79.9-.14,1.85,1.15,1.2,2.07-1,8.92,1.2,5.25,3.67a4.25,4.25,0,0,1-4.9,0,2.44,2.44,0,0,1,.24-4c.57-.43.19-.84-.28-1A2.49,2.49,0,0,0,902,760.2Z"/><path class="cls-8" d="M922.18,764.43c.09,1.81,2.62,3.63,4.2,3.77a4.76,4.76,0,0,0,4.74-3c.34-.87,1.5-3.29.47-4a2.33,2.33,0,0,0-1.25-.29,16.67,16.67,0,0,0-5.81.95,4.31,4.31,0,0,0-1.73,1A2,2,0,0,0,922.18,764.43Z"/><path class="cls-4" d="M920.73,764.82c.42,2.76,3.65,4.64,6.27,4.44,3.14-.23,5.11-2.46,6.06-5.27.34-1,.76-2.37,0-3.27s-2.66-.87-3.88-.8c-2.87.18-8.14,1-8.44,4.62-.13,1.5,2.82,1.11,2.93-.22.16-1.93,3.82-2.17,5.26-2.26.86,0,1.44-.28,1.62.57a4.62,4.62,0,0,1-.61,2c-.54,1.36-1.59,2.78-3.26,2.47a4,4,0,0,1-3-3C923.42,762.7,920.51,763.42,920.73,764.82Z"/><path class="cls-8" d="M948,739.54a12.31,12.31,0,0,1,.07,2.11c-.7,14.07-17.52,20.74-29.62,20.74-16.41,0-29.71-10.24-29.71-22.87,0-5.09,2.57-10.24,4-15.18a5.22,5.22,0,0,1,.71-1.65c1.15-1.57,2.81-1.06,4.61-1.26a14.36,14.36,0,0,0,5.34-1.64,37.7,37.7,0,0,1,28.46-.68c1.92.75,3.69,2.23,5.6,2.85,2.2.7,4.94.4,7.37.4,1.74,2.89.43,5.35.94,8.19C946.32,733.65,947.63,736.46,948,739.54Z"/><path class="cls-4" d="M945.57,740.18c.94,12.34-11.35,19.6-22.16,20.87-11.36,1.34-25.28-3.37-30.47-14.31-2.82-6-1.54-11.78.51-17.79.49-1.44.81-3.83,1.68-5,1-1.37-.2-.79,1.91-1.43,1.92-.58,3.85-.67,5.78-1.4,8.25-3.12,16-4.49,24.68-1.82,3.06.94,5.6,3,8.68,3.82,2.47.63,5.12.38,7.63.34l-1.4-.46c1.24,2.75.55,5.29.93,8.18.4,3,1.73,5.95,2.23,9,.19,1.2,5.06.13,4.83-1.29-.5-3.06-1.8-5.94-2.23-9s.34-5.36-.93-8.19c-.23-.5-1-.46-1.41-.45a21.35,21.35,0,0,1-10.6-2.49,33.57,33.57,0,0,0-10.07-2.86,42.67,42.67,0,0,0-18.07,1.51,88.57,88.57,0,0,1-10.58,3,9.81,9.81,0,0,0-4.16,1.38c-1.84,1.33-2.12,3.34-2.81,5.39-1.23,3.64-2.76,7.27-3.13,11.13-1,10.37,6.92,18.55,15.9,22.31,9.25,3.87,19.91,3.59,29.31.39,9.76-3.33,19.65-10.71,18.78-22.15C950.31,737.78,945.45,738.68,945.57,740.18Z"/><path class="cls-1" d="M945.2,721.08c.9-.37,1.91-.66,2.47,0s.45,1.74.37,2.79a21.08,21.08,0,0,1-.61,4.09,7.92,7.92,0,0,1-2.13,3.68,19.56,19.56,0,0,1-2.25-.92,5.8,5.8,0,0,1-1.71-1.6,6.46,6.46,0,0,1-1.45-4.52C940.07,722.85,943.7,721.7,945.2,721.08Z"/><path class="cls-1" d="M891,721.69c0-1,0-2,.8-2.33s1.79.15,2.76.58a20.4,20.4,0,0,1,3.64,1.95c.62.44,1.88,1.29,2.07,2.06s-.67,2.27-1.2,2.88a5.66,5.66,0,0,1-6.56,1C891,727.12,891.13,723.32,891,721.69Z"/><path class="cls-1" d="M913,747.42c.72.66,1.4,1.46,1.07,2.23s-1.38,1.14-2.38,1.51a20.68,20.68,0,0,1-4,1.17c-.75.12-2.25.39-2.92,0s-1.11-2.08-1.16-2.89a5.67,5.67,0,0,1,3.95-5.33C909.2,743.51,911.77,746.32,913,747.42Z"/><path class="cls-1" d="M914.11,751.72c-.62-.75-1.19-1.63-.76-2.35s1.53-.94,2.56-1.17a20.67,20.67,0,0,1,4.09-.62c.76,0,2.28-.08,2.89.42s.82,2.22.75,3a5.64,5.64,0,0,1-4.64,4.74C917.31,756.11,915.14,753,914.11,751.72Z"/><path class="cls-4" d="M894.26,728l-.2-4.87c0-.76-.09-1.52-.09-2.27a4,4,0,0,1,0-.85c.16-.49.12-.54-.1-.16l-2.44.66c1,.05,2.45,1.32,3.35,1.83l3.79,2.16c1.55.88,5.94-1.31,3.8-2.52s-4.2-2.42-6.32-3.59c-1.74-1-3.63-1.39-5.42-.19a3.72,3.72,0,0,0-1.54,3.6c.07,2.5.21,5,.31,7.49.07,1.79,4.91.76,4.83-1.29Z"/><path class="cls-4" d="M940.58,724.5l8.37-3.61-3.31-.1a13.67,13.67,0,0,1,.31,6.78c-.41,1.87-1.6,3.27-2.15,5-.4,1.29,4.36.66,4.8-.74.63-2,1.93-3.6,2.29-5.81a14.81,14.81,0,0,0-.42-6.55c-.29-1-2.78-.33-3.3-.1L938.8,723c-3.11,1.34-.21,2.35,1.78,1.49Z"/><path class="cls-4" d="M904,738.56a10.14,10.14,0,0,0,4.22,1.65,6.68,6.68,0,0,0,3.1-.33q1.4-.58-.6.15l.65-.14a8.61,8.61,0,0,0,1.61-.58c.54-.26,1.53-1,.54-1.43s-2.49.15-3.39.57c1.28-.39,1.55-.5.83-.33l-.56.13a8.09,8.09,0,0,0-1.37.53l3-.65a5.88,5.88,0,0,1-1.77-.31c-.59-.27-1.12-.66-1.69-1a4,4,0,0,0-3.13.18c-.25.1-2.22,1.07-1.4,1.53Z"/><path class="cls-4" d="M917.3,741.24c2.73,2.22,6.63,1.83,9.81,1,.93-.25,2.27-1.09,2-2.25s-2-1.19-2.84-1c-1.83.5-3.65.77-5.21-.5s-5.86,1-3.74,2.73Z"/><path class="cls-4" d="M920.63,754.7c-2.36.25-3.94-2.28-4.66-4.12-.48-1.22-2.53-.75-3.38-.41-1.32.54-4.74,2.21-5.78.16-.87-1.71-5.58-.18-4.83,1.3,2.26,4.46,9.07,2.07,12.55.65l-3.39-.4c1.54,3.92,4.63,6.07,8.86,5.62,2.41-.26,4-3.15.63-2.8Z"/></g></svg>
