<?xml version="1.0" encoding="utf-8"?>
<!-- Generator: Adobe Illustrator 22.0.1, SVG Export Plug-In . SVG Version: 6.00 Build 0)  -->
<svg version="1.1" id="Layer_1" xmlns="http://www.w3.org/2000/svg" xmlns:xlink="http://www.w3.org/1999/xlink" x="0px" y="0px"
	 viewBox="0 0 312.9 312.9" style="enable-background:new 0 0 312.9 312.9;" xml:space="preserve">
<style type="text/css">
	.st0{fill:#1DB3E8;}
	.st1{fill:#4CB748;}
	.st2{fill:#EF4644;}
	.st3{fill:none;}
</style>
<g>
	<path class="st0" d="M128.4,185.9c0,0-34.4-88.6-36.7-93.3c-2.3-4.6-10.5-14.9-24.4-9.5c-14,5.3-11.1,20.5-10,23.6
		c1,2.9,47.6,125.1,48.6,127.7c0.9,2.5,3.9,4.6,7.7,4.3s6.7-7.2,6.7-7.2s6.9-19.8,10-27.7C133.3,195.8,128.4,185.9,128.4,185.9
		L128.4,185.9z"/>
	<path class="st1" d="M117.2,107.1c-1.1-3.1-4-18.2,10-23.6c13.9-5.3,22.1,4.9,24.4,9.5c2.3,4.6,36.7,93.3,36.7,93.3s4.9,10,1.8,18
		c-3.1,8-10,27.7-10,27.7s-2.8,6.9-6.7,7.2c-3.9,0.3-6.7-1.8-7.7-4.3S118.3,110.1,117.2,107.1L117.2,107.1z"/>
	<path class="st2" d="M193.8,150.5c0,0,5.3,20.4,14.7,12.7c3.9-3.2,6.7-11.1,10-19.7c4.6-12.3,7.7-21.4,8.8-25.7
		c1.2-4.2,7-33-23.2-33c-24.9,0-24.9,24.8-22.2,31.7C183.4,120.2,193.8,150.5,193.8,150.5L193.8,150.5z"/>
</g>
<rect x="27.6" y="45.7" class="st3" width="229.5" height="229.5"/>
</svg>
