<svg viewBox="0 0 502 500" xmlns="http://www.w3.org/2000/svg"><path d="m218.88 298.11s-62.51-161-66.72-169.38-19.09-27-44.33-17.26c-25.46 9.79-20.2 37.29-18.2 42.93 1.9 5.34 86.44 227.31 88.19 231.9s7 8.4 14 7.93 12.13-13.06 12.13-13.06 12.6-35.93 18.2-50.39-3.27-32.67-3.27-32.67z" fill="#1db3e8"/><path d="m198.59 155.14c-2-5.64-7.27-33.14 18.2-42.93 25.23-9.7 40.11 8.87 44.33 17.26s66.72 169.38 66.72 169.38 8.87 18.2 3.27 32.66-18.2 50.39-18.2 50.39-5.13 12.6-12.13 13.06-12.25-3.34-14-7.93-86.29-226.55-88.19-231.89z" fill="#4cb748"/><path d="m337.69 233.87s9.64 37.06 26.69 23c7-5.78 12.24-20.19 18.06-35.73 8.37-22.36 13.86-38.87 16-46.55s12.72-60-42.13-60c-45.34 0-45.32 45.11-40.28 57.64 2.73 6.64 21.66 61.64 21.66 61.64z" fill="#ef4644"/></svg>